<?xml version="1.0" encoding="utf-8"?>
<!-- Generator: Adobe Illustrator 25.4.1, SVG Export Plug-In . SVG Version: 6.00 Build 0)  -->
<svg version="1.1" id="Layer_1" xmlns="http://www.w3.org/2000/svg" xmlns:xlink="http://www.w3.org/1999/xlink" x="0px" y="0px"
	 viewBox="0 0 514 205" style="enable-background:new 0 0 514 205;" xml:space="preserve">
<style type="text/css">
	.st0{fill:#ffffff;}
</style>
<g id="_2K_Down">
	<g id="Group_628" transform="translate(-1754.838 -2074.444)">
		<path id="Path_766" class="st0" d="M1947.3,2168.9h8.5v-13.6h14.7v-8.4h-14.7v-13.6h-8.5v13.6h-14.7v8.4h14.7V2168.9z"/>
		<path id="Path_767" class="st0" d="M2071.5,2131.6c-5.2-11.8-18.9-17.2-30.7-12c-5.4,2.4-9.7,6.6-12,12c-3.9,9.5-3.9,20.2,0,29.7
			c5.6,11.8,19.7,16.8,31.5,11.3c4.9-2.3,8.9-6.3,11.3-11.3C2075.4,2151.8,2075.4,2141.1,2071.5,2131.6z M2060.3,2160.6
			c-2.3,3.3-6.1,5.2-10.1,5.2l0,0c-4,0.1-7.8-1.9-10.2-5.2c-2.6-3.4-3.9-8.2-3.9-14.2c0-6,1.3-10.7,3.9-14.2
			c4.1-5.6,11.9-6.8,17.5-2.8c1.1,0.8,2,1.7,2.8,2.8c2.6,3.4,3.9,8.2,3.9,14.2S2062.9,2157.2,2060.3,2160.6L2060.3,2160.6z"/>
		<path id="Path_768" class="st0" d="M2115,2119.6c-11.8-5.2-25.6,0.2-30.7,12l0,0c-3.9,9.5-3.9,20.2,0,29.7
			c5.6,11.8,19.7,16.8,31.5,11.3c4.9-2.3,8.9-6.3,11.3-11.3c3.9-9.5,3.9-20.2,0-29.7C2124.7,2126.3,2120.4,2122,2115,2119.6z
			 M2115.8,2160.6c-2.3,3.3-6.1,5.2-10.1,5.2l0,0c-4,0.1-7.8-1.9-10.2-5.2c-2.6-3.4-3.9-8.2-3.9-14.2s1.3-10.7,3.9-14.2
			c4.1-5.6,11.9-6.8,17.5-2.8c1.1,0.8,2,1.7,2.8,2.8c2.6,3.4,3.9,8.2,3.9,14.2C2119.7,2152.5,2118.4,2157.2,2115.8,2160.6z"/>
		<path id="Path_769" class="st0" d="M2148.7,2154.2l5.3-5.7l15.7,25.4h12.3l-20.8-33.1l20.2-21.8H2169l-20.3,22.2V2119h-10v54.9h10
			L2148.7,2154.2z"/>
		<path id="Path_770" class="st0" d="M1954,2214.3c-0.9-1.5-2.2-2.8-3.7-3.6c-1.7-0.9-3.6-1.3-5.5-1.3c-2.3-0.1-4.7,0.5-6.7,1.7
			c-1.9,1.1-3.4,2.8-4.4,4.7c-1.1,2.1-1.6,4.5-1.6,6.9c0,2.4,0.5,4.7,1.6,6.9c1,2,2.5,3.6,4.4,4.8c2,1.2,4.3,1.8,6.6,1.7
			c2,0.1,4.1-0.4,5.8-1.5c1.4-0.9,2.6-2,3.5-3.3l0.4,4.2h3.9v-36.9h-4.3L1954,2214.3z M1952.8,2227.8c-0.7,1.4-1.8,2.6-3.1,3.4
			c-1.4,0.8-2.9,1.2-4.5,1.2c-1.6,0-3.1-0.4-4.5-1.2c-1.3-0.8-2.4-2-3.1-3.4c-1.5-3.2-1.5-6.9,0-10.1c0.7-1.4,1.8-2.6,3.1-3.4
			c1.4-0.8,2.9-1.2,4.5-1.2c1.6,0,3.2,0.4,4.5,1.2c1.3,0.8,2.4,2,3.1,3.4C1954.2,2220.9,1954.2,2224.6,1952.8,2227.8L1952.8,2227.8z
			"/>
		<path id="Path_771" class="st0" d="M1983.4,2211c-2-1.1-4.2-1.7-6.5-1.6c-2.3,0-4.5,0.5-6.5,1.6c-1.9,1.1-3.5,2.7-4.6,4.6
			c-1.2,2.2-1.8,4.6-1.7,7.1c-0.1,2.5,0.5,4.9,1.7,7.1c1.1,1.9,2.6,3.5,4.5,4.6c2,1.1,4.2,1.7,6.5,1.6c2.3,0,4.5-0.5,6.5-1.6
			c1.9-1.1,3.5-2.7,4.6-4.6c1.2-2.2,1.8-4.6,1.7-7.1c0.1-2.5-0.5-4.9-1.7-7.1C1986.9,2213.7,1985.3,2212.1,1983.4,2211z
			 M1984,2228.1c-0.7,1.3-1.8,2.5-3.1,3.2c-1.2,0.7-2.7,1.1-4.1,1.1c-1.4,0-2.8-0.4-4-1.1c-1.3-0.8-2.4-1.9-3.1-3.2
			c-1.6-3.4-1.6-7.3,0-10.7c0.7-1.3,1.8-2.5,3.1-3.2c1.2-0.7,2.7-1.1,4.1-1.1c1.4,0,2.8,0.4,4.1,1.1c1.3,0.8,2.4,1.9,3.1,3.2
			c0.8,1.7,1.2,3.5,1.2,5.3C1985.3,2224.6,1984.9,2226.4,1984,2228.1z"/>
		<path id="Path_772" class="st0" d="M2018.8,2230l-6-20h-4.9l-6,20l-5.4-20h-4.3l7.4,25.5h4.4l6.3-21l6.3,21h4.4l7.4-25.5h-4.4
			L2018.8,2230z"/>
		<path id="Path_773" class="st0" d="M2046.1,2209.4c-1.8,0-3.6,0.4-5.2,1.4c-1.5,0.9-2.7,2.2-3.5,3.8l-0.3-4.6h-3.9v25.5h4.3v-13.2
			c0-2.9,0.7-5.2,2.2-6.8c1.4-1.6,3.4-2.4,5.5-2.4c4.4,0,6.6,2.7,6.6,8v14.4h4.3v-14.9c0-3.8-0.9-6.6-2.7-8.4
			C2051.4,2210.3,2048.7,2209.3,2046.1,2209.4z"/>
		<rect id="Rectangle_503" x="2062.4" y="2198.5" class="st0" width="4.3" height="36.9"/>
		<path id="Path_774" class="st0" d="M2091.8,2211c-2-1.1-4.2-1.7-6.5-1.6c-2.3,0-4.5,0.5-6.5,1.6c-1.9,1.1-3.5,2.7-4.6,4.6
			c-1.2,2.2-1.8,4.6-1.7,7.1c-0.1,2.5,0.5,4.9,1.7,7.1c1.1,1.9,2.6,3.5,4.5,4.6c2,1.1,4.2,1.7,6.5,1.6c2.3,0,4.5-0.5,6.5-1.6
			c1.9-1.1,3.5-2.7,4.6-4.6c1.2-2.2,1.8-4.6,1.7-7.1c0.1-2.5-0.5-4.9-1.7-7.1C2095.3,2213.7,2093.8,2212.1,2091.8,2211z
			 M2092.5,2228.1c-0.7,1.3-1.8,2.5-3.1,3.2c-1.2,0.7-2.7,1.1-4.1,1.1c-1.4,0-2.8-0.4-4-1.1c-1.3-0.8-2.4-1.9-3.1-3.2
			c-1.6-3.4-1.6-7.3,0-10.7c0.7-1.3,1.8-2.5,3.1-3.2c1.2-0.7,2.7-1.1,4.1-1.1c1.4,0,2.8,0.4,4.1,1.1c1.3,0.8,2.4,1.9,3.1,3.2
			c0.8,1.7,1.2,3.5,1.2,5.3C2093.7,2224.6,2093.3,2226.4,2092.5,2228.1z"/>
		<path id="Path_775" class="st0" d="M2114.5,2209.4c-1.8,0-3.5,0.3-5.1,1c-1.6,0.6-2.9,1.6-4,2.9c-1.1,1.3-1.8,3-1.9,4.7h4.4
			c0.2-1.5,1.1-2.8,2.3-3.7c1.3-0.9,2.8-1.3,4.3-1.3c1.7-0.1,3.4,0.5,4.7,1.7c1.2,1.4,1.9,3.2,1.7,5.1v0.3h-6.9
			c-3.4,0-6.1,0.7-8.1,2.1c-2,1.4-3.1,3.6-3,6c0,1.4,0.3,2.7,1,3.9c0.7,1.2,1.8,2.2,3.1,2.9c1.7,0.8,3.5,1.1,5.3,1.1
			c2,0.1,3.9-0.4,5.6-1.5c1.3-0.9,2.4-2.2,3.2-3.7l0.3,4.6h3.8v-15.7c0.1-2.8-0.8-5.5-2.7-7.6
			C2120.8,2210.4,2118.1,2209.4,2114.5,2209.4z M2120.9,2223.5c0,1.5-0.3,3-0.9,4.3c-0.6,1.3-1.5,2.5-2.7,3.3
			c-1.2,0.9-2.7,1.3-4.2,1.3c-1.5,0.1-2.9-0.3-4.1-1.2c-1-0.8-1.5-2-1.5-3.2c0-1.3,0.6-2.5,1.6-3.3c1-0.9,2.8-1.3,5.4-1.3
			L2120.9,2223.5L2120.9,2223.5z"/>
		<path id="Path_776" class="st0" d="M2152.5,2214.3c-0.9-1.5-2.2-2.8-3.7-3.6c-1.7-0.9-3.6-1.3-5.5-1.3c-2.3-0.1-4.7,0.5-6.7,1.7
			c-1.9,1.1-3.4,2.8-4.4,4.7c-1.1,2.1-1.6,4.5-1.6,6.9c0,2.4,0.5,4.7,1.6,6.9c1,2,2.5,3.6,4.4,4.8c2,1.2,4.3,1.8,6.6,1.7
			c2,0.1,4.1-0.4,5.8-1.5c1.4-0.9,2.6-2,3.5-3.3l0.4,4.2h3.9v-36.9h-4.3L2152.5,2214.3z M2151.2,2227.8c-0.7,1.4-1.8,2.6-3.1,3.4
			c-1.4,0.8-2.9,1.2-4.5,1.2c-1.6,0-3.1-0.4-4.5-1.2c-1.3-0.8-2.4-2-3.1-3.4c-1.5-3.2-1.5-6.9,0-10.1c0.7-1.4,1.8-2.6,3.1-3.4
			c1.4-0.8,2.9-1.2,4.5-1.2c1.6,0,3.2,0.4,4.5,1.2c1.3,0.8,2.4,2,3.1,3.4C2152.7,2220.9,2152.7,2224.6,2151.2,2227.8L2151.2,2227.8z
			"/>
		<path id="Path_777" class="st0" d="M2181.9,2223.9c-1-1-2.2-1.8-3.5-2.2c-1.5-0.5-3-0.9-4.5-1.3c-1.5-0.3-3-0.8-4.4-1.5
			c-1-0.4-1.6-1.4-1.6-2.4c0-1,0.4-2,1.3-2.6c1-0.7,2.3-1.1,3.6-1c1.3-0.1,2.7,0.3,3.8,1.1c0.9,0.7,1.6,1.9,1.7,3.1h4.3
			c-0.1-2.3-1.2-4.4-3-5.8c-1.9-1.4-4.3-2.1-6.6-2c-2.4-0.1-4.8,0.6-6.7,2.1c-1.6,1.3-2.5,3.4-2.5,5.5c-0.1,1.4,0.4,2.7,1.4,3.7
			c1,1,2.1,1.7,3.4,2.2c1.3,0.5,2.7,0.9,4.1,1.2c1.6,0.3,3.2,0.8,4.7,1.4c1.1,0.6,1.8,1.8,1.7,3.1c0,1.1-0.5,2.1-1.3,2.7
			c-1.1,0.9-2.6,1.3-4,1.2c-1.7,0.1-3.3-0.4-4.6-1.5c-1.1-0.9-1.8-2.1-2.1-3.5h-4.4c0.3,2.5,1.5,4.8,3.5,6.3
			c2.2,1.6,4.9,2.4,7.6,2.3c2.6,0.1,5.1-0.7,7.2-2.2c1.7-1.4,2.7-3.5,2.6-5.7C2183.3,2226.6,2182.8,2225.1,2181.9,2223.9z"/>
		<path id="Path_778" class="st0" d="M1898.5,2110.4h-50.1c-4.4,0-7.9,3.6-7.9,7.9v117.2c0,4.4,3.6,7.9,7.9,7.9h50.1
			c4.4,0,7.9-3.6,7.9-7.9v-117.2C1906.4,2114,1902.8,2110.4,1898.5,2110.4z M1901.8,2235.5c0,1.9-1.5,3.4-3.4,3.4h-50.1
			c-1.9,0-3.4-1.5-3.4-3.4v-117.2c0-1.9,1.5-3.4,3.4-3.4h6.3v2.8c0,1.1,0.9,1.9,2,1.9h33.5c1.1,0,2-0.9,2-1.9v-2.8h6.3
			c1.9,0,3.4,1.5,3.4,3.4L1901.8,2235.5z"/>
		<path id="Path_779" class="st0" d="M1872.7,2201c0.4,0.4,1,0.4,1.4,0l10.3-10.3c0.4-0.4,0.4-1,0-1.4l-1-1c-0.4-0.4-1-0.4-1.4,0
			l-6.9,6.9v-52.4c0-0.6-0.4-1-1-1h-1.4c-0.6,0-1,0.4-1,1v52.4l-6.9-6.9c-0.4-0.4-1-0.4-1.4,0l-1,1c-0.4,0.4-0.4,1,0,1.4
			L1872.7,2201z"/>
		<path id="Rectangle_504" class="st0" d="M1852.7,2209.5h41.4c0.6,0,1,0.4,1,1v1.4c0,0.6-0.4,1-1,1h-41.4c-0.6,0-1-0.4-1-1v-1.4
			C1851.7,2210,1852.2,2209.5,1852.7,2209.5z"/>
		<path id="Path_780" class="st0" d="M2018.5,2166.5h-23.1c1.5-1.3,3-2.6,4.6-4.1c2.8-2.5,5.5-5.3,7.9-8.2c2.4-2.8,4.5-5.9,6.2-9.2
			c1.6-3.1,2.5-6.5,2.5-10c0-5.7-1.7-10.1-5-13c-3.5-3-8-4.5-12.6-4.4c-3.2,0-6.4,0.7-9.3,2.1c-2.8,1.4-5.1,3.6-6.6,6.3
			c-1.7,3-2.5,6.4-2.4,9.8v1.5h9.2v-1.5c0-1.7,0.3-3.4,1-4.9c0.6-1.4,1.7-2.7,3-3.5c1.5-0.9,3.3-1.4,5-1.3c1.7-0.1,3.4,0.3,4.9,1.2
			c1.2,0.8,2,1.9,2.5,3.2c0.6,1.5,0.9,3.1,0.8,4.7c-0.1,2.5-0.8,5-2,7.2c-1.6,2.9-3.5,5.6-5.7,8.1c-2.7,3-5.5,5.8-8.5,8.5
			c-3.2,2.9-6.6,5.8-10.2,8.6l-0.6,0.5v6.7h38.2L2018.5,2166.5z"/>
	</g>
</g>
</svg>
