<?xml version="1.0" encoding="utf-8"?>
<!-- Generator: Adobe Illustrator 25.4.1, SVG Export Plug-In . SVG Version: 6.00 Build 0)  -->
<svg version="1.1" id="Layer_1" xmlns="http://www.w3.org/2000/svg" xmlns:xlink="http://www.w3.org/1999/xlink" x="0px" y="0px"
	 viewBox="0 0 514 205" style="enable-background:new 0 0 514 205;" xml:space="preserve">
<style type="text/css">
	.st0{fill:#ffffff;}
</style>
<g>
	<path class="st0" d="M122,148.2c0.9-0.8,1.8-1.6,2.8-2.5c1.7-1.5,3.3-3.2,4.8-4.9c1.5-1.7,2.7-3.6,3.7-5.5c1-1.9,1.5-3.9,1.5-6
		c0-3.4-1-6.1-3-7.9c-2.1-1.8-4.8-2.7-7.6-2.6c-1.9,0-3.9,0.4-5.6,1.3c-1.7,0.9-3.1,2.2-4,3.8c-1,1.8-1.5,3.8-1.5,5.9v0.9h5.5v-0.9
		c0-1,0.2-2,0.6-3c0.4-0.9,1-1.6,1.8-2.1c0.9-0.6,2-0.8,3-0.8c1-0.1,2.1,0.2,3,0.7c0.7,0.5,1.2,1.2,1.5,2c0.3,0.9,0.5,1.9,0.5,2.8
		c0,1.5-0.5,3-1.2,4.4c-1,1.8-2.1,3.4-3.5,4.9c-1.6,1.8-3.3,3.5-5.1,5.1c-1.9,1.7-4,3.5-6.1,5.2l-0.3,0.3v4.1h23l0-5H122z"/>
	<polygon class="st0" points="95.1,97.2 113.5,87.6 131.8,97.2 128.3,76.8 143.2,62.3 122.6,59.3 113.5,40.7 104.3,59.3 83.7,62.3 
		98.6,76.8 	"/>
	<polygon class="st0" points="286.7,62.3 266.2,59.3 257,40.7 247.8,59.3 227.3,62.3 242.1,76.8 238.6,97.2 257,87.6 275.4,97.2 
		271.9,76.8 	"/>
	<polygon class="st0" points="310.4,97.2 328.8,87.6 347.1,97.2 343.6,76.8 358.5,62.3 338,59.3 328.8,40.7 319.6,59.3 299,62.3 
		313.9,76.8 	"/>
	<polygon class="st0" points="166.9,97.2 185.2,87.6 203.6,97.2 200.1,76.8 215,62.3 194.4,59.3 185.2,40.7 176,59.3 155.5,62.3 
		170.4,76.8 	"/>
	<polygon class="st0" points="99.2,128.5 94,128.5 94,136.8 85,136.8 85,141.9 94,141.9 94,150.2 99.2,150.2 99.2,141.9 
		108.2,141.9 108.2,136.8 99.2,136.8 	"/>
	<polygon class="st0" points="168,119.6 160.4,119.6 148,133.2 148,119.6 141.9,119.6 141.9,153.2 148,153.2 148,141.2 151.2,137.7 
		160.8,153.2 168.3,153.2 155.6,133 	"/>
	<path class="st0" d="M193.7,128.8c-1.6,0-3.3,0.3-4.8,0.9c-1.5,0.6-2.7,1.5-3.8,2.7c-1,1.2-1.6,2.8-1.8,4.4h4.1
		c0.2-1.4,1-2.6,2.1-3.4c1.2-0.8,2.6-1.2,4.1-1.2c1.6-0.1,3.2,0.5,4.4,1.6c1.2,1.3,1.8,3,1.6,4.7v0.3h-6.4c-2.7-0.1-5.3,0.5-7.6,2
		c-1.8,1.3-2.9,3.4-2.8,5.6c0,1.3,0.3,2.5,1,3.6c0.7,1.2,1.7,2.1,2.9,2.7c1.5,0.7,3.2,1.1,4.9,1c1.8,0.1,3.7-0.4,5.2-1.4
		c1.2-0.9,2.3-2.1,2.9-3.4l0.2,4.3h3.6v-14.6c0.1-2.6-0.8-5.1-2.5-7.1C199.5,129.7,197,128.8,193.7,128.8z M199.7,142
		c0,1.4-0.3,2.8-0.9,4c-0.5,1.2-1.4,2.3-2.5,3.1c-1.2,0.8-2.5,1.2-4,1.2v0c-1.4,0.1-2.7-0.3-3.9-1.1c-0.9-0.7-1.4-1.8-1.4-3
		c0-1.2,0.5-2.3,1.5-3c1-0.8,2.6-1.2,5-1.2L199.7,142L199.7,142z"/>
	<path class="st0" d="M228.6,130.5c-1.9-1.1-4-1.7-6.2-1.6c-1.9-0.1-3.8,0.4-5.4,1.4c-1.3,0.8-2.4,1.9-3.3,3.1l-0.4-3.9h-3.6v34.3
		l4,0v-14.5c0.8,1.4,2,2.6,3.5,3.4c1.6,0.8,3.4,1.2,5.2,1.2c2.2,0,4.3-0.5,6.2-1.6c1.8-1.1,3.2-2.6,4.1-4.4c1-2,1.5-4.2,1.5-6.4
		c0-2.2-0.5-4.4-1.5-6.4C231.8,133.1,230.3,131.6,228.6,130.5z M229,146c-1.3,2.7-4.1,4.3-7.1,4.3c-3,0.1-5.8-1.6-7.1-4.3
		c-1.4-3-1.4-6.4,0-9.4c0.8-1.5,2-2.7,3.5-3.5c3.9-2,8.7-0.4,10.7,3.5C230.4,139.6,230.4,143,229,146z"/>
	<path class="st0" d="M258.6,130.5c-1.9-1.1-4-1.7-6.2-1.6c-1.9-0.1-3.8,0.4-5.4,1.4c-1.3,0.8-2.4,1.9-3.3,3.1l-0.4-3.9h-3.6v34.3
		l4,0v-14.5c0.8,1.4,2,2.6,3.5,3.4c1.6,0.8,3.4,1.2,5.2,1.2c2.2,0,4.3-0.5,6.2-1.6c1.8-1.1,3.2-2.6,4.1-4.4c1-2,1.5-4.2,1.5-6.4
		c0-2.2-0.5-4.4-1.5-6.4C261.8,133.1,260.3,131.6,258.6,130.5z M259,146c-0.7,1.3-1.6,2.4-2.9,3.1c-1.3,0.8-2.7,1.2-4.2,1.1
		c-3,0.1-5.8-1.6-7.1-4.3c-1.4-3-1.4-6.4,0-9.4c0.8-1.5,2-2.7,3.5-3.5c3.9-2,8.7-0.4,10.7,3.5C260.4,139.6,260.4,143,259,146z"/>
	<path class="st0" d="M286.3,134l-0.3-4.6h-3.6v23.8l4,0v-12c-0.1-1.7,0.3-3.4,1.1-4.9c0.6-1.1,1.6-2,2.8-2.5
		c1.2-0.5,2.6-0.8,3.9-0.7h1.1v-4.2c-1.9-0.1-3.9,0.4-5.6,1.4C288.1,131.1,287,132.4,286.3,134z"/>
	<path class="st0" d="M309.5,128.8c-1.6,0-3.3,0.3-4.8,0.9c-1.5,0.6-2.7,1.5-3.8,2.7c-1,1.2-1.6,2.8-1.8,4.4h4.1
		c0.2-1.4,1-2.6,2.1-3.4c1.2-0.8,2.6-1.2,4.1-1.2c1.6-0.1,3.2,0.5,4.4,1.6c1.2,1.3,1.8,3,1.6,4.7v0.3H309c-2.7-0.1-5.3,0.5-7.6,2
		c-1.8,1.3-2.9,3.4-2.8,5.6c0,1.3,0.3,2.5,1,3.6c0.7,1.2,1.7,2.1,2.9,2.7c1.5,0.7,3.2,1.1,4.9,1c1.8,0.1,3.7-0.4,5.2-1.4
		c1.2-0.9,2.3-2.1,2.9-3.4l0.2,4.3h3.6v-14.6c0.1-2.6-0.8-5.1-2.5-7.1C315.3,129.7,312.8,128.8,309.5,128.8z M315.4,142
		c0,1.4-0.3,2.8-0.9,4c-0.5,1.2-1.4,2.3-2.5,3.1c-1.2,0.8-2.5,1.2-4,1.2l0,0c-1.4,0.1-2.7-0.3-3.9-1.1c-0.9-0.7-1.4-1.8-1.4-3
		c0-1.2,0.5-2.3,1.5-3c1-0.8,2.6-1.2,5-1.2L315.4,142L315.4,142z"/>
	<path class="st0" d="M331.2,123.7h-3.5l-0.5,5.7H323v3.4h4.1v13.1c0,2.7,0.6,4.6,1.9,5.7c1.5,1.1,3.3,1.7,5.1,1.6h3.6v-3.5h-2.5
		c-1.1,0.1-2.3-0.2-3.2-0.8c-0.7-0.8-1-1.9-0.9-3v-13.1h7v-3.4h-7V123.7z"/>
	<path class="st0" d="M343.7,119.5c-0.5,0.5-0.8,1.2-0.8,1.9c0,0.1,0,0.1,0,0.2c0,1.5,1.3,2.7,2.8,2.6c0.7,0,1.4-0.3,2-0.8
		c0.5-0.5,0.8-1.2,0.8-2c0-0.7-0.3-1.4-0.8-1.9C346.5,118.4,344.8,118.4,343.7,119.5z"/>
	<rect x="343.6" y="129.4" class="st0" width="4" height="23.8"/>
	<path class="st0" d="M366.6,128.8c-1.7,0-3.4,0.4-4.9,1.3c-1.4,0.8-2.6,2.1-3.3,3.5l-0.2-4.3h-3.6v23.8l4,0v-12.3
		c-0.2-2.3,0.6-4.6,2-6.4c1.3-1.5,3.2-2.3,5.1-2.2c4.1,0,6.1,2.5,6.1,7.4v13.5h4v-13.9c0-3.5-0.8-6.2-2.5-7.9
		C371.6,129.7,369.1,128.7,366.6,128.8z"/>
	<path class="st0" d="M391.3,128.8c-1.8-0.1-3.5,0.3-5.1,1.1c-1.3,0.7-2.5,1.7-3.2,3c-0.7,1.3-1.1,2.8-1.1,4.3
		c-0.1,2.4,1,4.8,2.8,6.3l-4.1,4v1.1c0.4,0.4,0.9,0.8,1.4,1.1c0.6,0.4,1.2,0.7,1.8,0.9c-1.1,0.7-2.1,1.7-2.7,2.9
		c-0.4,0.9-0.7,1.9-0.7,2.9c-0.1,1.5,0.4,3.1,1.4,4.3c1,1.2,2.4,2.1,3.9,2.5c1.8,0.6,3.8,0.9,5.7,0.8c2.1,0.1,4.1-0.3,6-1.2
		c1.4-0.7,2.6-1.7,3.5-3.1c0.7-1.2,1.1-2.5,1.1-3.9c0.1-1.9-0.7-3.6-2.1-4.9c-1.4-1.2-3.7-2-6.9-2.2c-1.8-0.2-3.2-0.3-4.2-0.5
		c-0.8-0.1-1.5-0.3-2.3-0.5c-0.5-0.1-0.9-0.4-1.3-0.6l2.4-2.3c1.2,0.4,2.4,0.5,3.7,0.5c1.8,0.1,3.5-0.3,5.1-1.1
		c1.3-0.7,2.4-1.8,3.2-3c0.8-1.3,1.1-2.8,1.1-4.3c0-1.7-0.5-3.3-1.4-4.6l4.5-0.2v-3H395C393.8,129,392.5,128.8,391.3,128.8z
		 M387.5,151.8c1.3,0.2,2.8,0.4,4.6,0.5c2.2,0.1,3.8,0.6,4.6,1.3c0.8,0.7,1.2,1.6,1.2,2.7c0,1.4-0.6,2.7-1.8,3.5
		c-1.4,0.9-3.1,1.4-4.8,1.3c-1.8,0.1-3.5-0.3-5-1.2c-1.3-0.7-2.1-2.1-2-3.6c0-0.8,0.3-1.5,0.6-2.2
		C385.5,153.1,386.4,152.3,387.5,151.8z M396.8,137.3c0.1,1.4-0.5,2.8-1.5,3.8c-1.1,0.9-2.6,1.4-4.1,1.3c-1.5,0.1-2.9-0.4-4.1-1.3
		c-1-1-1.6-2.4-1.5-3.8c-0.1-1.4,0.5-2.8,1.5-3.8c1.2-0.9,2.6-1.4,4.1-1.3c1.5-0.1,2.9,0.4,4.1,1.3
		C396.4,134.5,396.9,135.9,396.8,137.3z"/>
	<path class="st0" d="M421.9,140.4c-1.4-0.5-2.8-0.9-4.2-1.2c-1.4-0.3-2.8-0.7-4.1-1.4c-0.9-0.4-1.5-1.3-1.5-2.3
		c0-0.9,0.4-1.8,1.2-2.4c1-0.7,2.2-1,3.3-0.9c1.3-0.1,2.5,0.3,3.5,1c0.9,0.7,1.4,1.7,1.6,2.9h4c-0.1-2.1-1.2-4.1-2.8-5.4
		c-1.8-1.3-4-2-6.2-1.9c-2.3-0.1-4.5,0.6-6.3,2c-1.5,1.3-2.4,3.1-2.3,5.1c-0.1,1.3,0.4,2.5,1.3,3.5c0.9,0.9,2,1.6,3.2,2
		c1.2,0.5,2.5,0.8,3.8,1.1c1.5,0.3,3,0.7,4.4,1.3c1.1,0.5,1.7,1.7,1.6,2.9c0,1-0.4,1.9-1.2,2.6c-1.1,0.8-2.4,1.2-3.7,1.1
		c-1.6,0.1-3.1-0.4-4.3-1.4c-1-0.8-1.7-2-2-3.2H407c0.2,2.3,1.4,4.4,3.3,5.8c2.1,1.5,4.6,2.3,7.1,2.2c2.4,0.1,4.8-0.6,6.7-2.1
		c1.6-1.3,2.5-3.3,2.4-5.3c0.1-1.4-0.4-2.8-1.3-4C424.3,141.5,423.2,140.8,421.9,140.4z"/>
	<path class="st0" d="M382.2,97.2l18.4-9.7l18.4,9.7l-3.5-20.5l14.9-14.5l-20.5-3l-9.2-18.6l-9.2,18.6l-20.5,3l14.9,14.5L382.2,97.2
		z M427.7,63.1l-13.6,13.2l-5.2-16L427.7,63.1z"/>
</g>
</svg>
