<?xml version="1.0" encoding="utf-8"?>
<!-- Generator: Adobe Illustrator 25.4.1, SVG Export Plug-In . SVG Version: 6.00 Build 0)  -->
<svg version="1.1" id="Layer_1" xmlns="http://www.w3.org/2000/svg" xmlns:xlink="http://www.w3.org/1999/xlink" x="0px" y="0px"
	 viewBox="0 0 514 205" style="enable-background:new 0 0 514 205;" xml:space="preserve">
<style type="text/css">
	.st0{fill:#ffffff;}
</style>
<g id="Apple-2021">
	<g id="Group_627" transform="translate(-1768.973 -2339.461)">
		<g id="Group_84" transform="translate(1901.681 2383.749)">
			<g id="Group_82">
				<g id="Path_339" transform="translate(14.577 19.416)">
					<path id="Path_764" class="st0" d="M-3.9,89.2c-15.1,0-32-9.6-44-25C-62.3,45.5-67.4,22.3-61.8,0.4c0.1-0.3,0.4-0.5,0.7-0.4
						c0.3,0.1,0.5,0.4,0.4,0.7c-5.5,21.6-0.5,44.5,13.7,62.8c11.8,15.2,28.3,24.6,43.1,24.6c0.3,0,0.5,0.2,0.6,0.5
						C-3.3,89-3.6,89.2-3.9,89.2C-3.9,89.2-3.9,89.2-3.9,89.2L-3.9,89.2z"/>
				</g>
				<path id="Path_340" class="st0" d="M-5.6,104.9L-5.6,104.9c-6.1-6-6.1-15.8,0-21.9c0,0,0,0,0,0l0,0l0,0
					C0.4,89,0.4,98.8-5.6,104.9z"/>
				<path id="Path_341" class="st0" d="M-18.3,119.3L-18.3,119.3c1.4-8.4,9.3-14.2,17.8-12.8l0,0l0,0
					C-1.9,114.9-9.8,120.7-18.3,119.3z"/>
				<path id="Path_342" class="st0" d="M-25.3,91.9L-25.3,91.9c-5.4-6.6-4.4-16.4,2.2-21.8l0,0l0,0C-17.6,76.7-18.6,86.5-25.3,91.9
					C-25.3,91.9-25.3,91.9-25.3,91.9L-25.3,91.9z"/>
				<path id="Path_343" class="st0" d="M-41.8,68.6L-41.8,68.6c-3.7-7.7-0.4-17,7.3-20.6l0,0l0,0C-30.8,55.7-34.1,64.9-41.8,68.6
					C-41.8,68.6-41.8,68.6-41.8,68.6L-41.8,68.6z"/>
				<path id="Path_344" class="st0" d="M-48.4,45.6L-48.4,45.6c-1.5-8.4,4.1-16.5,12.5-18l0,0l0,0C-34.3,36-39.9,44.1-48.4,45.6
					L-48.4,45.6z"/>
				<path id="Path_345" class="st0" d="M-46.7,20.3L-46.7,20.3c-3.3-7.9,0.4-17,8.3-20.3l0,0l0,0C-35.1,7.9-38.8,17-46.7,20.3z"/>
				<path id="Path_346" class="st0" d="M-38,105.1L-38,105.1c3.9-7.6,13.3-10.5,20.9-6.6c0,0,0,0,0,0l0,0l0,0
					C-21.1,106.1-30.4,109.1-38,105.1z"/>
				<path id="Path_347" class="st0" d="M-53.8,84.7L-53.8,84.7c6-6.1,15.8-6.1,21.9,0c0,0,0,0,0,0l0,0l0,0
					C-37.9,90.7-47.8,90.7-53.8,84.7C-53.8,84.7-53.8,84.7-53.8,84.7L-53.8,84.7z"/>
				<path id="Path_348" class="st0" d="M-63.1,61.8L-63.1,61.8c7.5-4.1,16.9-1.2,21,6.3c0,0,0,0,0,0l0,0l0,0
					C-49.7,72.2-59.1,69.4-63.1,61.8z"/>
				<path id="Path_349" class="st0" d="M-63.1,36.5L-63.1,36.5c8.5,0,15.5,6.9,15.5,15.5c0,0,0,0,0,0v0l0,0
					C-56.1,52-63.1,45-63.1,36.5L-63.1,36.5z"/>
				<path id="Path_350" class="st0" d="M-64,15.7L-64,15.7c8.5,0,15.5,6.9,15.5,15.5c0,0,0,0,0,0v0l0,0C-57.1,31.2-64,24.3-64,15.7
					C-64,15.7-64,15.7-64,15.7z"/>
			</g>
			<g id="Group_83" transform="translate(302.399)">
				<g id="Path_351" transform="translate(0 19.415)">
					<path id="Path_765" class="st0" d="M-63.5,89.2c-0.3,0-0.5-0.3-0.5-0.6c0-0.3,0.2-0.5,0.5-0.5c14.8,0,31.3-9.4,43.1-24.6
						C-6.1,45.1-1.1,22.2-6.6,0.7C-6.7,0.4-6.5,0.1-6.2,0C-6-0.1-5.7,0.1-5.6,0.4C0,22.3-5,45.5-19.5,64.2
						C-31.5,79.6-48.3,89.2-63.5,89.2z"/>
				</g>
				<path id="Path_352" class="st0" d="M-47.2,104.9L-47.2,104.9c6.1-6,6.1-15.8,0-21.9l0,0l0,0C-53.2,89-53.2,98.8-47.2,104.9
					L-47.2,104.9z"/>
				<path id="Path_353" class="st0" d="M-34.5,119.3L-34.5,119.3c-1.4-8.4-9.3-14.2-17.8-12.8c0,0,0,0,0,0l0,0l0,0
					C-50.9,114.9-42.9,120.7-34.5,119.3C-34.5,119.3-34.5,119.3-34.5,119.3z"/>
				<path id="Path_354" class="st0" d="M-27.5,91.9L-27.5,91.9c5.4-6.6,4.4-16.4-2.2-21.8l0,0l0,0C-35.1,76.7-34.1,86.5-27.5,91.9z"
					/>
				<path id="Path_355" class="st0" d="M-11,68.6L-11,68.6c3.7-7.7,0.4-17-7.3-20.6l0,0l0,0C-22,55.7-18.7,64.9-11,68.6
					C-11,68.6-11,68.6-11,68.6L-11,68.6z"/>
				<path id="Path_356" class="st0" d="M-4.4,45.6L-4.4,45.6c1.5-8.4-4.1-16.5-12.5-18l0,0l0,0C-18.4,36-12.8,44.1-4.4,45.6z"/>
				<path id="Path_357" class="st0" d="M-6.1,20.3L-6.1,20.3c3.3-7.9-0.4-17-8.3-20.3c0,0,0,0,0,0l0,0l0,0C-17.7,7.9-14,17-6.1,20.3
					z"/>
				<path id="Path_358" class="st0" d="M-14.7,105.1L-14.7,105.1c-3.9-7.6-13.3-10.5-20.9-6.6c0,0,0,0,0,0l0,0l0,0
					C-31.7,106.1-22.3,109.1-14.7,105.1z"/>
				<path id="Path_359" class="st0" d="M1,84.7L1,84.7c-6-6.1-15.8-6.1-21.9,0c0,0,0,0,0,0l0,0l0,0C-14.8,90.7-5,90.7,1,84.7L1,84.7
					z"/>
				<path id="Path_360" class="st0" d="M10.4,61.8L10.4,61.8c-7.5-4.1-16.9-1.2-21,6.3c0,0,0,0,0,0l0,0l0,0
					C-3.1,72.2,6.3,69.4,10.4,61.8z"/>
				<path id="Path_361" class="st0" d="M10.3,36.5L10.3,36.5c-8.5,0-15.5,6.9-15.5,15.5c0,0,0,0,0,0v0l0,0C3.4,52,10.3,45,10.3,36.5
					L10.3,36.5L10.3,36.5z"/>
				<path id="Path_362" class="st0" d="M11.2,15.7L11.2,15.7c-8.5,0-15.5,6.9-15.5,15.5v0l0,0C4.3,31.2,11.2,24.3,11.2,15.7
					L11.2,15.7z"/>
			</g>
		</g>
		<g id="Group_85" transform="translate(2004.967 2462.605)">
			<path id="Path_363" class="st0" d="M-64,27.9V8.7h4.4l0.5,3.6c0.7-1.2,1.7-2.2,2.8-3c1.3-0.8,2.8-1.1,4.2-1.1v5.2h-1.4
				c-1,0-2,0.2-2.9,0.5c-0.8,0.3-1.6,0.9-2,1.7c-0.5,1.1-0.8,2.3-0.7,3.4v8.8L-64,27.9z"/>
			<path id="Path_364" class="st0" d="M-46,5.7c-0.8,0-1.6-0.3-2.2-0.8c-0.6-0.5-0.9-1.3-0.9-2.1c0-0.8,0.3-1.5,0.9-2
				c1.3-1.1,3.2-1.1,4.5,0c0.6,0.5,0.9,1.3,0.9,2c0,0.8-0.3,1.5-0.9,2.1C-44.4,5.4-45.2,5.7-46,5.7z M-48.5,27.9V8.7h5v19.2
				L-48.5,27.9z"/>
			<path id="Path_365" class="st0" d="M-30.2,22.2c-0.9,0-1.7-0.1-2.6-0.3l-1.4,1.4c0.6,0.3,1.2,0.5,1.8,0.6c0.7,0.2,2,0.3,3.6,0.5
				c2,0,3.9,0.7,5.6,1.8c1.2,1,1.8,2.5,1.7,4.1c0,1.1-0.3,2.3-0.9,3.2c-0.7,1.1-1.7,1.9-2.9,2.5c-1.6,0.7-3.3,1-5,0.9
				c-2.3,0.1-4.6-0.4-6.6-1.5c-1.6-0.9-2.6-2.7-2.5-4.6c0-1.8,1-3.5,2.5-4.5c-0.5-0.2-0.9-0.5-1.3-0.7c-0.4-0.2-0.7-0.5-1-0.8v-0.9
				l3.4-3.6c-1.5-1.3-2.3-3.1-2.2-5.1c0-2.5,1.4-4.9,3.6-6c1.3-0.7,2.8-1,4.2-0.9c1,0,2,0.1,3,0.5h7.3v3l-3.3,0.2
				c1.1,2.1,1,4.7-0.2,6.8c-0.6,1.1-1.6,2-2.7,2.5C-27.3,21.9-28.7,22.2-30.2,22.2z M-34.8,30.3c0,0.9,0.5,1.8,1.3,2.1
				c1,0.5,2.1,0.8,3.3,0.7c1.1,0,2.1-0.2,3-0.8c0.7-0.4,1.2-1.2,1.2-2c0-0.7-0.3-1.3-0.8-1.7c-0.9-0.6-1.9-0.9-3-0.9
				c-1.1-0.1-2-0.2-2.9-0.3c-0.6,0.3-1.2,0.8-1.6,1.4C-34.7,29.2-34.8,29.7-34.8,30.3L-34.8,30.3z M-30.2,18.4
				c0.9,0,1.8-0.3,2.5-0.8c1.3-1.2,1.3-3.3,0.1-4.6c0,0,0,0,0,0c0,0-0.1-0.1-0.1-0.1c-0.7-0.6-1.6-0.8-2.5-0.8
				c-0.9,0-1.8,0.2-2.6,0.8c-1.3,1.3-1.3,3.3,0,4.6l0,0C-32,18.1-31.1,18.4-30.2,18.4L-30.2,18.4z"/>
			<path id="Path_366" class="st0" d="M-16.3,27.9V0h5v11.6c0.6-1,1.5-1.9,2.6-2.5c1.2-0.6,2.5-0.9,3.8-0.9c2.1-0.1,4.1,0.7,5.5,2.2
				c1.3,1.5,2,3.7,2,6.6v10.8h-4.9V17.5c0.1-1.3-0.3-2.7-1-3.8c-0.8-0.9-1.9-1.4-3.1-1.3c-1.3,0-2.6,0.5-3.5,1.5
				c-1,1.1-1.5,2.6-1.4,4.1v9.9L-16.3,27.9z"/>
			<path id="Path_367" class="st0" d="M15.8,27.9c-1.7,0.1-3.4-0.4-4.8-1.5c-1.2-1-1.8-2.7-1.8-5.2v-8.4H5.9V8.7h3.3l0.6-5.2h4.4
				v5.2h5.2v4.1h-5.2v8.4c-0.1,0.7,0.1,1.4,0.6,1.9c0.6,0.4,1.3,0.6,2.1,0.5h2.4v4.2H15.8z"/>
			<path id="Path_368" class="st0" d="M32.8,27.9V8.7h4.4l0.4,3.3c0.6-1.1,1.5-2.1,2.6-2.7c1.2-0.7,2.6-1,4-1
				c2.1-0.1,4.1,0.7,5.5,2.2c1.3,1.5,2,3.7,2,6.6v10.8h-5V17.5c0.1-1.3-0.3-2.7-1-3.8c-0.8-0.9-1.9-1.4-3.1-1.3
				c-1.3,0-2.6,0.5-3.4,1.5c-0.9,1.2-1.4,2.6-1.3,4.1v9.9L32.8,27.9z"/>
			<path id="Path_369" class="st0" d="M65.6,28.4c-1.8,0-3.5-0.4-5-1.3c-1.5-0.8-2.7-2.1-3.5-3.5c-0.9-1.6-1.3-3.4-1.3-5.2
				c0-1.8,0.4-3.6,1.3-5.2c0.8-1.5,2.1-2.7,3.5-3.5c3.1-1.7,6.9-1.7,10,0c1.5,0.8,2.7,2.1,3.5,3.5c1.7,3.3,1.7,7.2,0,10.5
				c-0.8,1.5-2.1,2.7-3.5,3.5C69,27.9,67.3,28.4,65.6,28.4z M65.6,24.1c1.3,0,2.5-0.5,3.4-1.5c1.9-2.6,1.9-6.1,0-8.6
				c-1.7-1.9-4.7-1.9-6.5-0.2l0,0c-0.1,0.1-0.1,0.1-0.2,0.2c-1.9,2.6-1.9,6.1,0,8.6C63.1,23.5,64.3,24.1,65.6,24.1L65.6,24.1z"/>
			<path id="Path_370" class="st0" d="M82.9,27.9L77.3,8.7h4.9l3.3,13.8l3.9-13.8h5.5l3.9,13.8l3.4-13.8h4.9l-5.7,19.2h-5.2
				l-4.1-14.4L88,27.9H82.9z"/>
		</g>
		<g id="Group_87" transform="translate(2015.569 2382.575)">
			<path id="Path_371" class="st0" d="M-64,21.5l7.7-20.9h2.7l7.7,20.9h-2.7l-1.9-5.4h-8.9l-1.9,5.4H-64z M-58.7,14.1h7.4L-55,3.8
				L-58.7,14.1z"/>
			<path id="Path_372" class="st0" d="M-43,28.1V6.7h2.3l0.2,2.5c0.5-0.8,1.2-1.4,2-1.9c1-0.6,2.2-0.9,3.4-0.9c1.4,0,2.7,0.3,3.9,1
				c1.1,0.7,2,1.6,2.6,2.8c0.6,1.2,0.9,2.6,0.9,4c0,1.4-0.3,2.8-0.9,4c-0.6,1.1-1.5,2.1-2.6,2.8c-1.2,0.7-2.5,1-3.9,1
				c-1.1,0-2.2-0.2-3.2-0.7c-0.9-0.5-1.7-1.2-2.2-2.1v9.1L-43,28.1z M-35.3,19.7c1.9,0.1,3.6-1,4.4-2.7c0.9-1.9,0.9-4,0-5.9
				c-1.2-2.4-4.2-3.4-6.7-2.2c-0.9,0.5-1.7,1.2-2.2,2.2c-0.9,1.9-0.9,4,0,5.9C-38.9,18.7-37.2,19.8-35.3,19.7L-35.3,19.7z"/>
			<path id="Path_373" class="st0" d="M-24.2,28.1V6.7h2.3l0.2,2.5c0.5-0.8,1.2-1.4,2-1.9c1-0.6,2.2-0.9,3.4-0.9
				c1.4,0,2.7,0.3,3.9,1c1.1,0.7,2,1.6,2.6,2.8c0.6,1.2,0.9,2.6,0.9,4c0,1.4-0.3,2.8-0.9,4c-0.6,1.1-1.5,2.1-2.6,2.8
				c-1.2,0.7-2.5,1-3.9,1c-1.1,0-2.2-0.2-3.2-0.7c-0.9-0.5-1.7-1.2-2.2-2.1v9.1L-24.2,28.1z M-16.5,19.7c1.9,0,3.6-1,4.4-2.7
				c0.9-1.9,0.9-4,0-5.9c-1.2-2.4-4.2-3.4-6.7-2.2c-0.9,0.5-1.7,1.2-2.2,2.2c-0.9,1.9-0.9,4,0,5.9c0.4,0.8,1,1.5,1.8,2
				C-18.4,19.5-17.5,19.7-16.5,19.7L-16.5,19.7z"/>
			<path id="Path_374" class="st0" d="M-5.4,21.5V0h2.5v21.5H-5.4z"/>
			<path id="Path_375" class="st0" d="M7.9,21.9c-1.3,0-2.6-0.3-3.8-1c-1.1-0.6-2-1.6-2.6-2.7c-0.7-1.3-1-2.7-0.9-4.1
				c0-1.4,0.3-2.8,0.9-4.1C2.1,8.9,3,8,4.1,7.3c1.2-0.7,2.5-1,3.8-1c1.3,0,2.6,0.3,3.7,1c1,0.6,1.9,1.5,2.4,2.6
				c0.6,1,0.8,2.2,0.8,3.4c0,0.2,0,0.4,0,0.7s0,0.5,0,0.7H3.1c0,1,0.3,2,0.8,2.8c0.8,1.4,2.4,2.3,4,2.3c0.9,0,1.8-0.2,2.6-0.7
				c0.7-0.5,1.2-1.2,1.5-1.9h2.5C13.7,20,10.9,22,7.9,21.9L7.9,21.9z M7.9,8.5c-1.2,0-2.3,0.4-3.2,1.1c-1,0.8-1.5,1.9-1.6,3.2h9.3
				c0-1.2-0.5-2.3-1.4-3.1C10.2,8.8,9,8.4,7.9,8.5L7.9,8.5z"/>
			<g id="Group_86" transform="translate(89.973 0.199)">
				<path id="Path_376" class="st0" d="M-64,21.5v-1.8c1.4-1.1,2.8-2.3,4.1-3.4c1.2-1.1,2.3-2.2,3.4-3.4c0.9-1,1.7-2.1,2.4-3.3
					c0.5-1,0.8-2,0.9-3.1c0-0.7-0.1-1.4-0.4-2.1c-0.2-0.6-0.7-1.2-1.2-1.6c-0.7-0.4-1.5-0.6-2.3-0.6c-0.8,0-1.6,0.2-2.3,0.6
					c-0.6,0.4-1.1,1-1.4,1.6c-0.3,0.7-0.5,1.4-0.5,2.2h-2.4c0-1.2,0.3-2.5,0.9-3.6c0.6-1,1.4-1.8,2.4-2.3c1.1-0.5,2.2-0.8,3.4-0.8
					c1.7-0.1,3.3,0.5,4.6,1.6c1.3,1.2,1.9,3,1.8,4.7c0,1.3-0.3,2.6-0.9,3.7c-0.7,1.3-1.5,2.5-2.4,3.5c-1,1.1-2,2.2-3.1,3.2
					c-1.1,1-2.1,1.9-3.1,2.7H-50v2.1L-64,21.5z"/>
				<path id="Path_377" class="st0" d="M-38.4,21.9c-1.7,0-3.4-0.4-4.8-1.4c-1.4-1-2.5-2.3-3.1-3.8c-1.5-3.7-1.5-7.8,0-11.5
					c0.7-1.6,1.7-2.9,3.1-3.8c3-1.8,6.7-1.8,9.7,0c1.4,1,2.5,2.3,3.1,3.8c1.5,3.7,1.5,7.8,0,11.4c-0.7,1.5-1.7,2.9-3.1,3.8
					C-35,21.4-36.7,21.9-38.4,21.9z M-38.4,19.6c1.2,0,2.3-0.4,3.3-1c1-0.8,1.8-1.8,2.3-3c0.6-1.5,0.9-3.1,0.8-4.7
					c0-1.6-0.2-3.2-0.8-4.7c-0.5-1.2-1.3-2.2-2.3-3c-2-1.4-4.6-1.4-6.6,0c-1,0.8-1.8,1.8-2.3,3c-1.1,3-1.1,6.3,0,9.3
					c0.5,1.2,1.3,2.2,2.3,3C-40.8,19.3-39.6,19.7-38.4,19.6L-38.4,19.6z"/>
				<path id="Path_378" class="st0" d="M-26.4,21.5v-1.8c1.4-1.1,2.8-2.3,4.1-3.4c1.2-1.1,2.3-2.2,3.4-3.4c0.9-1,1.7-2.1,2.4-3.3
					c0.5-1,0.8-2,0.9-3.1c0-0.7-0.1-1.4-0.4-2.1c-0.2-0.6-0.7-1.2-1.2-1.6c-0.7-0.4-1.5-0.6-2.3-0.6c-0.8,0-1.6,0.2-2.3,0.6
					c-0.6,0.4-1.1,1-1.4,1.6c-0.3,0.7-0.5,1.4-0.5,2.2h-2.4c0-1.3,0.3-2.5,0.9-3.6c0.6-1,1.4-1.8,2.4-2.3c1.1-0.5,2.2-0.8,3.4-0.8
					c1.7-0.1,3.3,0.5,4.6,1.6c1.3,1.2,1.9,3,1.8,4.7c0,1.3-0.3,2.6-0.9,3.7c-0.7,1.3-1.5,2.5-2.4,3.5c-1,1.1-2,2.2-3.1,3.2
					c-1.1,1-2.1,1.9-3.1,2.7h10.2v2.1L-26.4,21.5z"/>
				<path id="Path_379" class="st0" d="M-6.7,21.5V3.2L-10.1,4V2.2l4.3-1.8h1.7v21.1L-6.7,21.5z"/>
			</g>
		</g>
		<g id="Group_89" transform="translate(1969.163 2419.21)">
			<path id="Path_380" class="st0" d="M48.8,27.7L43.2,8.6h4.9l3.3,13.8l3.9-13.8h5.5l3.9,13.8l3.4-13.8h4.9l-5.6,19.1h-5.1L58,13.4
				l-4.1,14.3H48.8z"/>
			<path id="Path_381" class="st0" d="M84.5,28.2c-1.8,0-3.5-0.4-5.1-1.2c-1.5-0.8-2.7-2-3.5-3.5c-0.9-1.6-1.3-3.4-1.3-5.2
				c0-1.8,0.4-3.7,1.3-5.3c0.8-1.5,2-2.7,3.5-3.6c1.6-0.9,3.4-1.3,5.2-1.3c1.7,0,3.5,0.4,5,1.2c1.4,0.8,2.6,2,3.4,3.4
				c0.8,1.5,1.2,3.1,1.2,4.8c0,0.3,0,0.6,0,0.9s0,0.6-0.1,1H79.5c0,1.3,0.6,2.6,1.6,3.5c0.9,0.8,2.2,1.3,3.4,1.3
				c0.9,0,1.8-0.2,2.5-0.7c0.7-0.4,1.2-1,1.5-1.8h5c-0.4,1.2-1,2.3-1.8,3.3c-0.8,1-1.9,1.8-3.1,2.3C87.3,27.9,85.9,28.2,84.5,28.2z
				 M84.5,12.2c-1.1,0-2.3,0.3-3.2,1c-1,0.8-1.6,1.9-1.8,3.1H89c0-1.2-0.5-2.2-1.4-3C86.8,12.5,85.7,12.1,84.5,12.2L84.5,12.2z"/>
			<path id="Path_382" class="st0" d="M107.2,27.7V0h4.9v27.7H107.2z"/>
			<path id="Path_383" class="st0" d="M126.3,28.2c-1.7,0-3.5-0.4-5-1.3c-1.5-0.8-2.7-2.1-3.5-3.5c-0.9-1.6-1.3-3.4-1.3-5.2
				c0-1.8,0.4-3.6,1.3-5.2c0.8-1.5,2.1-2.7,3.5-3.5c3.1-1.7,6.8-1.7,9.9,0c1.5,0.8,2.7,2.1,3.5,3.5c1.7,3.3,1.7,7.2,0,10.4
				c-0.8,1.5-2.1,2.7-3.5,3.5C129.8,27.8,128,28.2,126.3,28.2z M126.3,23.9c1.3,0,2.5-0.5,3.4-1.4c1.9-2.5,1.9-6.1,0-8.6
				c-1.7-1.8-4.6-1.9-6.5-0.2c0,0,0,0,0,0c-0.1,0.1-0.1,0.1-0.2,0.2c-1.9,2.6-1.9,6,0,8.6C123.8,23.4,125,23.9,126.3,23.9
				L126.3,23.9z"/>
			<path id="Path_384" class="st0" d="M144.6,27.7l-7-19.1h5.2l4.9,14.4l4.9-14.4h5.2l-7.1,19.1H144.6z"/>
			<path id="Path_385" class="st0" d="M169.1,28.2c-1.8,0-3.5-0.4-5.1-1.2c-1.5-0.8-2.7-2-3.5-3.5c-0.9-1.6-1.3-3.4-1.3-5.2
				c0-1.8,0.4-3.7,1.3-5.3c0.8-1.5,2-2.7,3.5-3.6c1.6-0.9,3.4-1.3,5.2-1.3c1.7,0,3.5,0.4,5,1.2c1.4,0.8,2.6,2,3.4,3.4
				c0.8,1.5,1.2,3.1,1.2,4.8c0,0.3,0,0.6,0,0.9c0,0.3,0,0.6-0.1,1h-14.5c0,1.3,0.6,2.6,1.6,3.5c0.9,0.8,2.2,1.3,3.4,1.3
				c0.9,0,1.8-0.2,2.5-0.7c0.7-0.4,1.2-1,1.5-1.8h5c-0.4,1.2-1,2.3-1.8,3.3c-0.8,1-1.9,1.8-3.1,2.3
				C171.9,27.9,170.5,28.2,169.1,28.2z M169.1,12.2c-1.1,0-2.3,0.3-3.2,1c-1,0.8-1.6,1.9-1.8,3.1h9.5c0-1.2-0.5-2.2-1.4-3
				C171.4,12.5,170.3,12.1,169.1,12.2L169.1,12.2z"/>
			<g id="Group_88" transform="translate(0 0.739)">
				<path id="Path_386" class="st0" d="M-64,27.2L-54,0h5.6l10,27.2h-5.3l-2.2-6.3h-10.6l-2.2,6.3L-64,27.2z M-55.2,17h7.9l-4-11.3
					L-55.2,17z"/>
				<path id="Path_387" class="st0" d="M-35.1,35.8V7.9h4.4l0.5,2.8c0.7-0.9,1.5-1.7,2.5-2.3c1.2-0.7,2.6-1,4-1
					c1.7,0,3.4,0.4,4.9,1.3c1.4,0.9,2.6,2.1,3.4,3.6c0.8,1.6,1.3,3.4,1.2,5.2c0,1.8-0.4,3.6-1.2,5.2c-0.8,1.5-2,2.7-3.4,3.6
					c-1.5,0.9-3.1,1.3-4.9,1.3c-1.3,0-2.6-0.2-3.8-0.8c-1.1-0.5-2-1.3-2.6-2.3v11.2L-35.1,35.8z M-24.7,23.3c1.5,0,2.9-0.5,3.9-1.6
					c1.1-1.1,1.6-2.6,1.6-4.1c0.1-1.5-0.5-3-1.6-4.2c-2.2-2.2-5.7-2.2-7.9,0c-2,2.4-2,5.9,0,8.3C-27.7,22.8-26.2,23.4-24.7,23.3
					L-24.7,23.3z"/>
				<path id="Path_388" class="st0" d="M-9.8,35.8V7.9h4.4l0.5,2.8C-4.1,9.8-3.3,9-2.3,8.4c1.2-0.7,2.6-1,4-1c1.7,0,3.4,0.4,4.9,1.3
					c1.4,0.9,2.6,2.1,3.4,3.6c0.8,1.6,1.3,3.4,1.2,5.2c0,1.8-0.4,3.6-1.2,5.2c-0.8,1.5-2,2.7-3.4,3.6c-1.5,0.9-3.2,1.3-4.9,1.3
					c-1.3,0-2.6-0.3-3.8-0.8c-1.1-0.5-2-1.3-2.6-2.3v11.2L-9.8,35.8z M0.6,23.3c1.5,0,2.9-0.5,3.9-1.6c1.1-1.1,1.6-2.6,1.6-4.1
					c0.1-1.5-0.5-3-1.6-4.2c-2.2-2.2-5.7-2.2-7.9,0c-2,2.4-2,5.9,0,8.3C-2.3,22.8-0.9,23.4,0.6,23.3L0.6,23.3z"/>
				<path id="Path_389" class="st0" d="M23.5,27.7c-1.5,0-3.1-0.3-4.5-0.8c-1.2-0.5-2.3-1.3-3.1-2.3c-0.8-1-1.3-2.2-1.4-3.4h5
					c0.2,0.8,0.6,1.5,1.3,1.9c0.8,0.6,1.7,0.8,2.7,0.8c0.9,0.1,1.7-0.2,2.4-0.7c0.5-0.4,0.8-0.9,0.8-1.5c0.1-0.7-0.4-1.4-1.1-1.7
					c-1-0.4-2-0.7-3-0.9c-0.8-0.2-1.7-0.4-2.5-0.7c-0.8-0.2-1.6-0.6-2.4-1c-0.7-0.4-1.3-0.9-1.7-1.6c-0.5-0.7-0.7-1.5-0.7-2.4
					c0-1.7,0.7-3.3,2-4.3c3.4-2.3,7.8-2.3,11.2-0.2c1.4,1.1,2.2,2.7,2.4,4.4h-4.7c-0.3-1.4-1.4-2.1-3.2-2.1c-0.8,0-1.5,0.1-2.2,0.5
					c-0.5,0.3-0.8,0.8-0.8,1.4c0,0.6,0.4,1,1.1,1.4c1,0.4,2,0.7,3,0.9c1.3,0.3,2.6,0.7,3.7,1c1,0.3,2,0.9,2.7,1.7
					c0.7,0.9,1.1,2,1,3.2c0,1.1-0.3,2.3-0.9,3.2c-0.7,1-1.7,1.8-2.8,2.3C26.5,27.4,25,27.7,23.5,27.7z"/>
			</g>
		</g>
	</g>
</g>
</svg>
