<svg width="19" height="18" viewBox="0 0 19 18" fill="none" xmlns="http://www.w3.org/2000/svg">
<path d="M9.5 0C4.54453 0 0.5 4.04453 0.5 9C0.5 13.9555 4.54453 18 9.5 18C14.4555 18 18.5 13.9555 18.5 9C18.5 4.04453 14.4919 0 9.5 0ZM14.6377 6.8502L8.07895 13.336C7.89676 13.5182 7.6417 13.5182 7.45951 13.336L4.36235 10.2024C4.18016 10.0202 4.18016 9.76518 4.36235 9.583L4.65385 9.2915C4.83603 9.10931 5.09109 9.10931 5.27328 9.2915L7.78745 11.8057L13.7267 5.90283C13.9089 5.72065 14.164 5.72065 14.3462 5.90283L14.6377 6.19433C14.8198 6.41296 14.8198 6.70445 14.6377 6.8502Z" fill="#5FC6C4"/>
</svg>
