<svg width="342" height="238" viewBox="0 0 342 238" fill="none" xmlns="http://www.w3.org/2000/svg">
<g clip-path="url(#clip0_4765_134164)">
<path opacity="0.4" d="M245.09 161.484H97.9707C99.7662 122.423 132.012 91.2766 171.549 91.2766C211.086 91.2766 243.295 122.423 245.09 161.484Z" fill="#CEEEED"/>
<path d="M230.983 161.484H112.078C113.287 129.715 139.413 104.321 171.512 104.321C203.611 104.321 229.737 129.715 230.983 161.484Z" fill="white"/>
<path d="M215.923 161.484H127.138C128.347 137.996 147.768 119.308 171.512 119.308C195.257 119.308 214.714 137.996 215.923 161.484Z" fill="#FFD04D"/>
<path d="M320.684 153.825H23.1465V189.478H320.684V153.825Z" fill="#CEEEED"/>
<path d="M233.988 192.3C233.988 168.592 183.201 174.455 186.902 153.789H154.29C154.29 153.789 147.218 159.798 151.762 167.017C160.116 180.244 116.585 178.266 116.585 191.384L233.988 192.3Z" fill="white"/>
<path d="M278.729 140.414C276.603 137.153 276.09 133.049 277.336 129.348C277.996 127.333 278.362 125.208 278.362 123.009C278.362 118.429 276.786 114.141 274.185 110.77C271.62 107.436 270.814 103.002 272.463 99.1181C273.415 96.8096 273.855 94.208 273.562 91.4964C272.792 84.4244 267.113 78.6715 260.041 77.9021C250.77 76.8761 242.929 84.0946 242.929 93.1453C242.929 95.0507 243.259 96.8829 243.918 98.5318C245.457 102.636 245.054 107.253 242.379 110.77C239.778 114.178 238.239 118.392 238.239 123.009C238.239 125.244 238.605 127.406 239.265 129.385C240.51 133.049 239.997 137.153 237.872 140.341C235.124 144.518 233.658 149.538 233.878 154.925C234.428 167.236 244.394 177.386 256.706 178.119C270.887 178.999 282.686 167.75 282.686 153.752C282.723 148.879 281.257 144.298 278.729 140.414Z" fill="#5FC6C4"/>
<path d="M258.318 78.4148V187.646" stroke="#008196" stroke-width="0.666014" stroke-miterlimit="10" stroke-linecap="round"/>
<path d="M243.075 110.184L258.318 128.652" stroke="#008196" stroke-width="0.666014" stroke-miterlimit="10" stroke-linecap="round"/>
<path d="M258.318 158.186L277.556 138.912" stroke="#1A2645" stroke-width="0.666014" stroke-miterlimit="10" stroke-linecap="round"/>
<path d="M341.423 191.384C340.398 174.638 331.164 179.439 328.782 168.592C327.389 162.217 327.792 150.894 313.135 148.256C309.728 147.633 304.341 145.837 299.395 137.959C298.259 136.164 296.83 134.698 295.181 133.599C293.019 131.62 289.867 130.667 286.606 130.777C283.308 130.667 280.194 131.62 278.032 133.599C276.383 134.735 274.954 136.164 273.818 137.959C268.835 145.837 263.448 147.67 260.04 148.256C245.383 150.931 245.823 162.217 244.394 168.592C242.012 179.365 232.778 174.602 231.752 191.384L286.606 191.347L341.423 191.384Z" fill="#008196"/>
<path d="M280.011 198.09C279.424 199.152 278.728 200.105 277.959 200.984H256.926C254.544 196.66 254.654 190.578 257.769 185.191C258.318 184.275 258.904 183.433 259.527 182.663C264.108 177.02 271.363 174.931 276.749 178.083C282.869 181.637 284.334 190.614 280.011 198.09Z" fill="#2FA3AD"/>
<path d="M264.584 199.848C264.511 200.251 264.401 200.654 264.365 201.057H241.17C241.133 199.482 241.243 197.869 241.536 196.221C243.185 187.17 249.708 180.647 256.047 181.637C257.146 181.82 258.135 182.186 259.088 182.736C263.595 185.411 265.977 192.3 264.584 199.848Z" fill="#9EDDDC"/>
<path d="M257.036 181.71L246.006 200.947" stroke="#008196" stroke-width="0.666014" stroke-miterlimit="10" stroke-linecap="round"/>
<path d="M264.658 191.97L249.927 194.095" stroke="#008196" stroke-width="0.666014" stroke-miterlimit="10" stroke-linecap="round"/>
<path d="M246.996 199.262L242.452 192.666" stroke="#008196" stroke-width="0.666014" stroke-miterlimit="10" stroke-linecap="round"/>
<path d="M244.871 222.64C244.871 223.299 243.442 223.959 240.84 224.582C233.365 226.304 216.216 227.66 194.597 228.246C187.305 228.429 179.464 228.539 171.402 228.539C169.9 228.539 168.361 228.539 166.895 228.539C164.733 228.539 162.608 228.503 160.483 228.466C156.159 228.393 151.945 228.319 147.878 228.246C145.24 228.173 142.675 228.063 140.183 228.026C139.01 227.99 137.838 227.916 136.702 227.88C120.543 227.184 108.047 226.011 101.928 224.619C99.2899 224.032 97.8975 223.336 97.8975 222.677C97.8975 220.441 113.434 218.499 136.409 217.51C138.461 217.4 140.623 217.327 142.785 217.29C144.58 217.217 146.412 217.143 148.281 217.107C148.391 217.107 148.464 217.107 148.537 217.107C151.725 216.997 155.06 216.924 158.431 216.924C161.326 216.887 164.257 216.85 167.262 216.814C168.654 216.814 170.047 216.814 171.476 216.814C180.783 216.814 189.687 216.96 197.895 217.217C225.34 218.023 244.871 220.148 244.871 222.64Z" fill="#008196"/>
<path d="M240.84 224.582C233.365 226.304 216.216 227.66 194.597 228.246C187.305 228.43 179.464 228.539 171.402 228.539C169.9 228.539 168.361 228.539 166.895 228.539C164.733 228.539 162.608 228.503 160.483 228.466C156.159 228.393 151.945 228.32 147.878 228.246C145.24 228.173 142.675 228.063 140.183 228.026C139.01 227.99 137.838 227.917 136.702 227.88C120.543 227.184 108.048 226.011 101.928 224.619C107.938 223.226 120.323 222.09 136.226 221.394C139.194 221.248 142.272 221.174 145.46 221.064C146.412 221.028 147.402 220.991 148.354 220.991C151.835 220.881 155.39 220.808 159.054 220.808C161.692 220.771 164.367 220.735 167.079 220.735C168.508 220.735 169.937 220.735 171.366 220.735C180.27 220.735 188.771 220.881 196.686 221.101C217.352 221.614 233.621 222.897 240.84 224.582Z" fill="#1A2645"/>
<path d="M148.208 228.246C144.323 228.136 140.586 228.026 137.032 227.843C136.848 226.341 136.592 223.886 136.555 221.357C136.519 220.038 136.555 218.719 136.702 217.51C136.702 217.363 136.738 217.253 136.738 217.107C136.812 216.337 137.471 215.751 138.241 215.751C138.974 215.714 139.633 216.264 139.78 216.997L139.816 217.217L139.89 216.924C140.036 216.191 140.659 215.641 141.429 215.641C142.088 215.641 142.711 216.081 142.894 216.74L143.078 217.29V217.327V216.74C143.078 215.971 143.664 215.385 144.433 215.385C145.093 215.385 145.679 215.861 145.752 216.52L145.862 217.143V216.814C145.862 216.081 146.449 215.494 147.182 215.494C147.878 215.494 148.464 216.044 148.501 216.704C148.501 216.85 148.537 216.997 148.537 217.143C148.611 218.096 148.721 219.452 148.721 220.991C148.757 223.079 148.647 225.644 148.208 228.246Z" fill="#FF9F79"/>
<path d="M139.816 217.034L139.743 218.499" stroke="#FF7640" stroke-width="0.666014" stroke-miterlimit="10" stroke-linecap="round" stroke-linejoin="round"/>
<path d="M143.041 216.85L143.078 218.169" stroke="#FF7640" stroke-width="0.666014" stroke-miterlimit="10" stroke-linecap="round" stroke-linejoin="round"/>
<path d="M145.826 216.557L145.899 217.84" stroke="#FF7640" stroke-width="0.666014" stroke-miterlimit="10" stroke-linecap="round" stroke-linejoin="round"/>
<path d="M221.236 196.294C217.755 190.028 207.642 187.317 198.994 186.107L194.963 196.404L204.087 199.006L188.221 205.125L192.728 223.006C192.765 223.006 227.795 208.093 221.236 196.294Z" fill="#FFD04D"/>
<path d="M184.996 185.265L183.75 193.289L194.926 196.441L198.957 186.144C191.482 185.118 184.996 185.265 184.996 185.265Z" fill="#FFD04D"/>
<path d="M170.376 206.847H183.568C182.395 205.235 182.175 202.487 181.956 200.508C181.516 200.984 181.039 201.424 180.563 201.79H173.125C172.685 201.461 172.282 201.094 171.879 200.691C171.732 202.67 171.476 205.345 170.376 206.847Z" fill="#FF9C79"/>
<path d="M184.997 196.404C185.729 196.037 186.279 195.414 186.645 194.755C187.232 193.509 187.122 192.08 186.023 191.713H185.986C185.949 191.713 185.913 191.677 185.876 191.677L185.839 191.823C185.876 191.787 185.949 191.75 185.986 191.713C185.839 192.959 185.583 194.681 184.997 196.404Z" fill="#FF9C79"/>
<path d="M167.482 194.755C167.738 195.158 168.105 195.561 168.544 195.854C168.068 194.278 167.848 192.813 167.738 191.677C166.712 192.153 166.712 193.582 167.482 194.755Z" fill="#FF9C79"/>
<path d="M167.701 189.771C167.701 190.065 167.665 190.797 167.775 191.823C167.885 192.959 168.104 194.425 168.581 196.001C169.167 198.016 170.23 200.105 171.952 201.9C172.648 202.596 173.601 202.963 174.59 202.963H179.17C180.196 202.963 181.186 202.56 181.882 201.827C181.919 201.79 181.992 201.717 182.029 201.68C183.458 200.105 184.41 198.309 185.033 196.587C185.62 194.865 186.023 191.897 186.023 191.897C187.635 190.688 188.514 188.159 188.881 186.364C187.745 186.51 187.415 186.364 186.389 186.034C186.865 185.997 187.818 186.29 188.917 185.045C188.588 185.155 186.426 184.348 181.992 181.673C173.051 176.36 169.57 183.982 169.57 183.982C169.57 183.982 167.811 183.945 167.262 186.144C167.042 186.803 167.372 188.489 167.701 189.771Z" fill="#1A2645"/>
<path d="M198.114 217.18C198.114 217.254 198.078 217.29 198.078 217.363L197.015 221.028L194.927 228.283C187.635 228.466 179.793 228.576 171.732 228.576C170.23 228.576 168.691 228.576 167.225 228.576C165.063 228.576 162.938 228.539 160.812 228.503L159.42 220.735L158.724 216.887L158.614 216.337C157.588 210.695 161.655 205.455 167.335 205.015C167.518 205.015 167.665 204.978 167.848 204.978C173.82 204.539 181.589 204.319 189.76 205.088C195.696 205.638 199.69 211.427 198.114 217.18Z" fill="#FFD04D"/>
<path d="M167.848 204.978L167.518 216.814L167.408 220.661L167.225 228.539C165.063 228.539 162.938 228.503 160.813 228.466C156.489 228.393 152.275 228.32 148.208 228.246C145.569 228.173 143.004 228.063 140.513 228.026L145.826 221.064L148.831 217.144L154.07 210.255C156.342 207.25 159.823 205.418 163.597 205.235L167.848 204.978Z" fill="#FFD04D"/>
<path d="M124.024 181.014C121.569 176.287 117.245 172.586 112.078 170.094C108.047 168.152 105.409 164.855 104.896 161.264C104.64 159.285 103.943 157.306 102.771 155.401C100.389 151.48 96.5417 148.475 91.8148 146.57C87.0146 144.628 84.1565 140.854 83.8267 136.75C83.6801 135.064 83.1305 133.379 82.1412 131.766C78.8067 126.16 71.295 122.972 63.6367 123.339C55.9784 122.972 48.5033 126.16 45.1322 131.766C44.1795 133.415 43.6299 135.101 43.4467 136.75C43.0802 140.854 40.2221 144.628 35.4586 146.57C30.805 148.439 26.8842 151.48 24.5025 155.401C23.3666 157.306 22.6704 159.285 22.3772 161.264C21.9009 164.855 19.2626 168.152 15.1953 170.094C9.99204 172.586 5.74151 176.287 3.24982 181.014C1.67419 184.055 0.977985 187.243 1.19784 190.358H55.0257H72.2477H126.076C126.259 187.243 125.599 184.092 124.024 181.014Z" fill="#5FC6C4"/>
<path d="M13.0699 179.768C6.03455 179.768 0.391602 174.089 0.391602 167.09V123.192C0.391602 116.157 6.07119 110.514 13.0699 110.514C20.1053 110.514 25.7482 116.194 25.7482 123.192V167.017C25.7482 174.052 20.0686 179.768 13.0699 179.768Z" fill="#9EDDDC"/>
<path d="M13.0698 110.624V182.077" stroke="#008196" stroke-width="0.666014" stroke-miterlimit="10" stroke-linecap="round"/>
<path d="M0.318359 136.75L12.9967 149.465" stroke="#008196" stroke-width="0.666014" stroke-miterlimit="10" stroke-linecap="round"/>
<path d="M58.2134 190.394H11.0178C8.45283 180.757 11.7873 170.754 19.8487 166.1C29.7421 160.384 42.1273 164.561 49.5291 176.104C51.3979 178.999 56.5278 187.573 58.2134 190.394Z" fill="#008196"/>
<path d="M79.21 143.089C77.0847 139.828 76.5717 135.724 77.8175 132.023C78.4771 130.008 78.8435 127.882 78.8435 125.684C78.8435 121.103 77.2679 116.816 74.6663 113.445C72.1013 110.111 71.2952 105.677 72.9441 101.793C73.8968 99.4844 74.3365 96.8828 74.0434 94.1712C73.2739 87.0992 67.5943 81.3463 60.5223 80.5769C51.2517 79.5509 43.4102 86.7694 43.4102 95.8201C43.4102 97.7256 43.74 99.5577 44.3996 101.207C45.9385 105.311 45.5355 109.928 42.8606 113.445C40.259 116.853 38.72 121.067 38.72 125.684C38.72 127.919 39.0864 130.081 39.746 132.06C40.9918 135.724 40.4788 139.828 38.3535 143.016C35.6054 147.193 34.1397 152.213 34.3595 157.599C34.9091 169.911 44.8759 180.061 57.1878 180.794C71.3685 181.674 83.1673 170.424 83.1673 156.427C83.204 151.517 81.7383 146.936 79.21 143.089Z" fill="#FFD04E"/>
<path d="M58.7998 81.0898V190.285" stroke="#FF7640" stroke-width="0.666014" stroke-miterlimit="10" stroke-linecap="round"/>
<path d="M43.5933 112.822L58.7999 131.29" stroke="#FF7640" stroke-width="0.666014" stroke-miterlimit="10" stroke-linecap="round"/>
<path d="M58.7998 160.824L78.0371 141.587" stroke="#FF7640" stroke-width="0.666014" stroke-miterlimit="10" stroke-linecap="round"/>
<path d="M77.2313 229.419H40.1857C39.3062 222.09 42.3476 214.982 48.5402 211.354C57.1512 206.371 68.7302 210.145 74.2999 219.855C76.0953 222.933 77.048 226.194 77.2313 229.419Z" fill="#9EDDDC"/>
<path d="M49.749 210.768L60.3021 229.346" stroke="#008196" stroke-width="0.666014" stroke-miterlimit="10" stroke-linecap="round"/>
<path d="M41.3945 219.818L56.0882 221.907" stroke="#008196" stroke-width="0.666014" stroke-miterlimit="10" stroke-linecap="round"/>
<path d="M59.2764 227.513L68.4736 213.223" stroke="#008196" stroke-width="0.666014" stroke-miterlimit="10" stroke-linecap="round"/>
<path d="M67.8506 229.419L76.0585 223.666" stroke="#008196" stroke-width="0.666014" stroke-miterlimit="10" stroke-linecap="round"/>
<path d="M328.745 177.863C321.71 177.863 316.067 172.183 316.067 165.185V121.36C316.067 114.325 321.746 108.682 328.745 108.682C335.781 108.682 341.424 114.361 341.424 121.36V165.185C341.46 172.183 335.781 177.863 328.745 177.863Z" fill="#FFD04D"/>
<path d="M328.746 108.718V191.347" stroke="#FF7640" stroke-width="0.666014" stroke-miterlimit="10" stroke-linecap="round"/>
<path d="M316.03 134.881L328.745 147.559" stroke="#FF7640" stroke-width="0.666014" stroke-miterlimit="10" stroke-linecap="round"/>
<path d="M328.782 132.353L341.423 119.748" stroke="#FF7640" stroke-width="0.666014" stroke-miterlimit="10" stroke-linecap="round"/>
<path d="M328.782 164.525L341.35 151.993" stroke="#FF7640" stroke-width="0.666014" stroke-miterlimit="10" stroke-linecap="round"/>
<path d="M96.1018 98.7148L97.1278 102.233L100.609 103.295L97.1278 104.321L96.1018 107.839L95.0392 104.321L91.5215 103.295L95.0392 102.233L96.1018 98.7148Z" fill="#FFCF4D"/>
<path d="M30.5483 19.5305L31.8675 24.0375L36.3379 25.3567L31.8675 26.6392L30.5483 31.1462L29.1926 26.6392L24.6855 25.3567L29.1926 24.0375L30.5483 19.5305Z" fill="#FFCF4D"/>
<path d="M298.735 88.7114L299.907 92.5955L303.792 93.7681L299.907 94.9407L298.735 98.8248L297.562 94.9407L293.678 93.7681L297.562 92.5955L298.735 88.7114Z" fill="#FFCF4D"/>
<g opacity="0.4">
<path opacity="0.4" d="M114.277 59.5441C113.727 53.3882 109.623 51.043 104.383 50.0171C99.876 49.1376 98.337 48.0017 96.4316 45.9131C93.6101 42.7985 90.4222 38.8044 83.68 38.8044C76.9378 38.8044 73.7499 42.7985 70.9284 45.9131C69.023 48.0017 67.4474 49.1376 62.977 50.0171C57.7371 51.043 53.6331 53.3515 53.0835 59.5441H114.277Z" fill="#CEEEED"/>
</g>
<g opacity="0.4">
<path opacity="0.4" d="M288.146 36.3859C287.596 30.0101 283.309 27.5917 277.922 26.529C273.269 25.613 271.62 24.4404 269.678 22.2785C266.746 19.0173 263.485 14.8767 256.413 14.8767C249.341 14.8767 246.117 19.054 243.148 22.2785C241.17 24.4404 239.558 25.6496 234.904 26.529C229.481 27.5917 225.23 30.0101 224.681 36.3859H288.146Z" fill="#CEEEED"/>
</g>
<path d="M248.095 142.356C248.561 142.356 248.938 141.979 248.938 141.513C248.938 141.048 248.561 140.67 248.095 140.67C247.63 140.67 247.252 141.048 247.252 141.513C247.252 141.979 247.63 142.356 248.095 142.356Z" fill="#CEEEED"/>
<path d="M10.1753 94.1345C10.6408 94.1345 11.0181 93.7572 11.0181 93.2918C11.0181 92.8263 10.6408 92.449 10.1753 92.449C9.70984 92.449 9.33252 92.8263 9.33252 93.2918C9.33252 93.7572 9.70984 94.1345 10.1753 94.1345Z" fill="#CEEEED"/>
<path d="M233.182 96.1133C233.647 96.1133 234.024 95.736 234.024 95.2705C234.024 94.8051 233.647 94.4277 233.182 94.4277C232.716 94.4277 232.339 94.8051 232.339 95.2705C232.339 95.736 232.716 96.1133 233.182 96.1133Z" fill="#CEEEED"/>
<path d="M32.5273 137.666C32.9928 137.666 33.3701 137.289 33.3701 136.823C33.3701 136.358 32.9928 135.98 32.5273 135.98C32.0619 135.98 31.6846 136.358 31.6846 136.823C31.6846 137.289 32.0619 137.666 32.5273 137.666Z" fill="#CEEEED"/>
<path d="M266.013 172.146C266.479 172.146 266.856 171.769 266.856 171.304C266.856 170.838 266.479 170.461 266.013 170.461C265.548 170.461 265.17 170.838 265.17 171.304C265.17 171.769 265.548 172.146 266.013 172.146Z" fill="#CEEEED"/>
<path d="M293.349 125.171C293.814 125.171 294.191 124.794 294.191 124.328C294.191 123.863 293.814 123.485 293.349 123.485C292.883 123.485 292.506 123.863 292.506 124.328C292.506 124.794 292.883 125.171 293.349 125.171Z" fill="#CEEEED"/>
<path d="M264.767 220.331C265.233 220.331 265.61 219.954 265.61 219.489C265.61 219.023 265.233 218.646 264.767 218.646C264.302 218.646 263.924 219.023 263.924 219.489C263.924 219.954 264.302 220.331 264.767 220.331Z" fill="#CEEEED"/>
<path d="M310.094 155.767C310.56 155.767 310.937 155.39 310.937 154.925C310.937 154.459 310.56 154.082 310.094 154.082C309.629 154.082 309.251 154.459 309.251 154.925C309.251 155.39 309.629 155.767 310.094 155.767Z" fill="#9EDDDC"/>
<path d="M213.871 160.531C214.336 160.531 214.713 160.153 214.713 159.688C214.713 159.223 214.336 158.845 213.871 158.845C213.405 158.845 213.028 159.223 213.028 159.688C213.028 160.153 213.405 160.531 213.871 160.531Z" fill="#9EDDDC"/>
<path d="M82.3975 77.8652C82.8629 77.8652 83.2402 77.4879 83.2402 77.0225C83.2402 76.557 82.8629 76.1797 82.3975 76.1797C81.932 76.1797 81.5547 76.557 81.5547 77.0225C81.5547 77.4879 81.932 77.8652 82.3975 77.8652Z" fill="#CEEEED"/>
<path d="M84.2666 182.333C84.7321 182.333 85.1094 181.956 85.1094 181.49C85.1094 181.025 84.7321 180.647 84.2666 180.647C83.8012 180.647 83.4238 181.025 83.4238 181.49C83.4238 181.956 83.8012 182.333 84.2666 182.333Z" fill="#CEEEED"/>
<path d="M30.4385 222.2C30.9039 222.2 31.2813 221.823 31.2813 221.357C31.2813 220.892 30.9039 220.515 30.4385 220.515C29.973 220.515 29.5957 220.892 29.5957 221.357C29.5957 221.823 29.973 222.2 30.4385 222.2Z" fill="#CEEEED"/>
<path d="M71.2583 158.589C71.7238 158.589 72.1011 158.212 72.1011 157.746C72.1011 157.281 71.7238 156.903 71.2583 156.903C70.7929 156.903 70.4155 157.281 70.4155 157.746C70.4155 158.212 70.7929 158.589 71.2583 158.589Z" fill="white"/>
<path d="M27.104 176.287C27.5695 176.287 27.9468 175.91 27.9468 175.444C27.9468 174.979 27.5695 174.602 27.104 174.602C26.6386 174.602 26.2612 174.979 26.2612 175.444C26.2612 175.91 26.6386 176.287 27.104 176.287Z" fill="white"/>
<path d="M136.995 195.818C137.461 195.818 137.838 195.44 137.838 194.975C137.838 194.509 137.461 194.132 136.995 194.132C136.53 194.132 136.152 194.509 136.152 194.975C136.152 195.44 136.53 195.818 136.995 195.818Z" fill="#9EDDDC"/>
</g>
<defs>
<clipPath id="clip0_4765_134164">
<rect width="341.215" height="237.7" fill="white" transform="translate(0.35498)"/>
</clipPath>
</defs>
</svg>
