<?xml version="1.0" encoding="utf-8"?>
<!-- Generator: Adobe Illustrator 25.4.1, SVG Export Plug-In . SVG Version: 6.00 Build 0)  -->
<svg version="1.1" id="Layer_1" xmlns="http://www.w3.org/2000/svg" xmlns:xlink="http://www.w3.org/1999/xlink" x="0px" y="0px"
	 viewBox="0 0 376 256" style="enable-background:new 0 0 376 256;" xml:space="preserve">
<style type="text/css">
	.st0{fill:#008196;}
	.st1{fill:#CEEEED;}
	.st2{fill:#9EDDDC;}
	.st3{fill:#FFFFFF;}
	.st4{fill:#FEF1C9;}
	.st5{fill:#FFD04D;}
	.st6{fill:none;stroke:#1A2645;stroke-width:0.5;stroke-linecap:round;stroke-miterlimit:10;}
	.st7{fill:#FF7640;}
	.st8{fill:none;stroke:#1A2645;stroke-width:0.5;stroke-miterlimit:10;}
	.st9{fill:#5FC6C4;}
	.st10{fill:none;stroke:#9EDDDC;stroke-width:0.65;stroke-miterlimit:10;}
	.st11{fill:none;stroke:#9EDDDC;stroke-width:0.58;stroke-miterlimit:10;}
	.st12{fill:none;stroke:#FFFFFF;stroke-width:0.5;stroke-miterlimit:10;}
</style>
<rect x="-4.5" y="-3.3" class="st0" width="385.3" height="265.5"/>
<path class="st1" d="M261,94.4v144.1H114.8V94.8c0-40.2,32.4-72.8,72.6-73.1h0.6c7.8,0,15.6,1.2,23,3.7c3.1,1,6.1,2.2,9.1,3.6
	c5.5,2.7,10.7,6.1,15.4,10.1c1.5,1.3,2.9,2.6,4.3,3.9C253.3,56.7,260.9,75.1,261,94.4z"/>
<path class="st2" d="M261,113.5v31.9h-37.8c0-0.4-0.1-0.9-0.1-1.3c0-4.3,2.2-11.4,10.2-13.4c7.6-1.8,10.1-2.9,15.9-10.3
	C251.9,116.9,255,113.8,261,113.5z"/>
<path class="st2" d="M187.1,80.7c0,0.4,0,0.8,0,1.1s0,0.5,0,0.7h-71.3c2.8-16.8,11.5-32.1,24.4-43.2c4.9,1.6,8,4.9,10.9,8.6
	c2.2,3,4.7,5.8,7.6,8.3c3.9,3.2,7.7,4.4,14.4,6C184.1,64.9,187.1,74.8,187.1,80.7z"/>
<path class="st3" d="M261,94.4v9.6c-25.5,7.9-52.6-6.4-60.5-31.9c-5-16.3-1.1-34.1,10.3-46.7c3.1,1,6.2,2.2,9.1,3.6
	c5.5,2.7,10.7,6.1,15.4,10.1c1.5,1.3,2.9,2.6,4.3,3.9C253.3,56.7,260.9,75.1,261,94.4z"/>
<path class="st4" d="M261,94.4c-20.2,7.9-43-2.2-50.9-22.4c-5.8-15-1.9-32,9.9-43c5.5,2.7,10.7,6.1,15.4,10.1
	c1.5,1.3,2.9,2.6,4.3,3.9C253.3,56.7,260.9,75.1,261,94.4z"/>
<path class="st5" d="M258.6,76.1c-10.2,6.4-23.7,3.4-30.1-6.9s-3.4-23.7,6.9-30.1c1.5,1.3,2.9,2.6,4.3,3.9
	C248.8,52.2,255.3,63.6,258.6,76.1z"/>
<path class="st0" d="M167.4,168c-2.3-3.5-2.8-7.9-1.4-11.8c2.3-6.8,1-14.2-3.4-19.9c-2.8-3.5-3.5-8.3-1.9-12.5
	c3.5-8.4-0.4-18-8.8-21.6c-8.4-3.5-18,0.4-21.6,8.8c-1.6,3.9-1.7,8.3-0.2,12.2c1.8,4.4,1.1,9.3-1.6,13.1c-4.4,5.7-5.6,13.2-3.3,19.9
	c1.3,4,0.8,8.3-1.5,11.8c-7.9,12.1-4.6,28.3,7.5,36.3s28.3,4.6,36.3-7.5C173.2,188,173.2,176.7,167.4,168z"/>
<path class="st0" d="M167.4,198.2c-2.3-3.5-2.8-7.9-1.4-11.8c2.3-6.8,1-14.2-3.4-19.9c-2.8-3.5-3.5-8.3-1.9-12.5
	c3.5-8.4-0.4-18-8.8-21.6s-18,0.4-21.6,8.8c-1.6,3.9-1.7,8.3-0.2,12.2c1.8,4.4,1.1,9.3-1.6,13.1c-4.4,5.7-5.6,13.2-3.3,19.9
	c1.3,4,0.8,8.3-1.5,11.8c-7.9,12.1-4.6,28.3,7.5,36.3s28.3,4.6,36.3-7.5C173.2,218.2,173.2,206.9,167.4,198.2z"/>
<line class="st6" x1="145.6" y1="129.9" x2="145.6" y2="225"/>
<path class="st7" d="M214,159.6c-2.1-3.2-2.6-7.2-1.2-10.8c0.6-1.6,0.9-3.2,0.9-4.9c0-2.6-0.7-5.1-2.1-7.4c-1.9-3.2-2.2-7-1-10.4
	c1.2-3.4,0.7-7.2-1.2-10.2c-1.6-2.5-2.2-5.5-1.7-8.4c0.1-0.8,0.2-1.5,0.1-2.3c-0.4-4.6-4.4-8-9-7.6c-4.3,0.4-7.7,4-7.6,8.4
	c0,0.4,0,0.9,0.1,1.3c0.5,2.9,0,6-1.6,8.5c-1.3,1.9-1.9,4.2-1.9,6.4c0,1.3,0.2,2.6,0.6,3.9c1.2,3.5,0.9,7.3-1,10.4
	c-1.3,2.2-2.1,4.8-2.1,7.4c0,1.6,0.3,3.3,0.8,4.8c1.3,3.5,0.9,7.5-1.1,10.7c-5.3,8-3.1,18.8,4.9,24.1c8,5.3,18.8,3.1,24.1-4.9
	C217.8,172.9,217.8,165.4,214,159.6L214,159.6z"/>
<line class="st8" x1="199" y1="114.1" x2="199" y2="202.3"/>
<path class="st9" d="M176.2,139.3L176.2,139.3c7.2,0,13,5.8,13,13.1v45c0,7.2-5.8,13.1-13,13.1l0,0c-7.2,0-13-5.8-13-13.1v-45
	C163.2,145.1,169,139.3,176.2,139.3z"/>
<line class="st6" x1="176.2" y1="156.6" x2="176.2" y2="224.2"/>
<rect x="163.1" y="182.5" class="st2" width="98" height="18.5"/>
<rect x="143.7" y="200.9" class="st2" width="117.4" height="37.3"/>
<rect x="163.1" y="182.5" class="st3" width="98" height="2.5"/>
<rect x="143.7" y="200.9" class="st3" width="117.4" height="2.5"/>
<path class="st9" d="M196.7,22.2c-36.5,4.7-63.8,35.8-63.8,72.5v143.7h-18.7V94.8c0-40.4,32.7-73.1,73.1-73.1c0,0,0,0,0,0
	C190.5,21.6,193.6,21.8,196.7,22.2z"/>
<path class="st10" d="M173,62.2c-6.6-1.6-10.5-2.8-14.4-5.9c-2.8-2.5-5.4-5.3-7.6-8.3c-4-5.2-8.5-9.6-17.5-9.6S120,42.8,116,48
	c-7.9,10.3-11.4,11.7-21.9,14.2C83,64.9,79.9,74.8,79.9,80.7c0,0.6,0,1.2,0.1,1.8h107c0-0.2,0-0.5,0-0.7s0-0.8,0-1.1
	C187.1,74.8,184.1,64.9,173,62.2z"/>
<path class="st11" d="M290.3,130.7c-4.8-1.1-7.6-2-10.4-4.3c-2-1.8-3.9-3.8-5.5-6c-2.9-3.7-6.1-7-12.6-7s-9.8,3.2-12.6,7
	c-5.7,7.4-8.2,8.5-15.8,10.3c-8,1.9-10.2,9.1-10.2,13.3c0,0.4,0,0.9,0.1,1.3h77.3c0-0.2,0-0.3,0-0.5s0-0.5,0-0.8
	C300.5,139.8,298.3,132.6,290.3,130.7z"/>
<polygon class="st5" points="79,161.7 81.2,169.2 88.6,171.4 81.2,173.6 79,181 76.8,173.6 69.4,171.4 76.8,169.2 "/>
<circle class="st3" cx="52.1" cy="111.4" r="2.1"/>
<circle class="st12" cx="84.4" cy="123.6" r="2.1"/>
<polygon class="st5" points="306.4,90.8 308,96.2 313.3,97.7 308,99.3 306.4,104.6 304.9,99.3 299.5,97.7 304.9,96.2 "/>
<circle class="st12" cx="331.8" cy="148.1" r="2.1"/>
<circle class="st3" cx="308.4" cy="177.3" r="1"/>
<rect x="114.1" y="219.6" class="st2" width="146.9" height="18.9"/>
<rect x="114.1" y="219.6" class="st3" width="146.6" height="2.7"/>
</svg>
