<svg width="30" height="32" viewBox="0 0 30 32" fill="none" xmlns="http://www.w3.org/2000/svg">
<g clip-path="url(#clip0)">
<path d="M29.9999 15.9992C30.018 14.9232 29.9094 13.8488 29.6764 12.7993H15.306V18.6079H23.7413C23.5815 19.6264 23.2219 20.6013 22.6842 21.474C22.1464 22.3467 21.4416 23.0991 20.6121 23.6861L20.5827 23.8806L25.1266 27.4802L25.4413 27.5124C28.3323 24.7819 29.9993 20.7643 29.9993 15.9992" fill="#4285F4"/>
<path d="M15.3062 31.3042C19.4387 31.3042 22.9081 29.9128 25.4423 27.5128L20.6123 23.6865C19.3199 24.6085 17.5852 25.252 15.3062 25.252C13.3706 25.2404 11.4878 24.6058 9.92479 23.4383C8.3618 22.2708 7.19803 20.6296 6.59858 18.7476L6.4192 18.7632L1.69444 22.5023L1.63269 22.6779C2.90518 25.2713 4.85804 27.4516 7.27288 28.975C9.68773 30.4984 12.4694 31.3048 15.3067 31.3042" fill="#34A853"/>
<path d="M6.59849 18.7476C6.2637 17.7513 6.09095 16.7056 6.08711 15.6521C6.09327 14.6003 6.25965 13.5559 6.58026 12.5565L6.57173 12.349L1.78904 8.5498L1.6326 8.62589C0.559144 10.8053 0 13.2116 0 15.6519C0 18.0922 0.559144 20.4985 1.6326 22.678L6.59849 18.7476" fill="#FBBC05"/>
<path d="M15.3061 6.05229C17.4994 6.01746 19.6206 6.85274 21.2245 8.38282L25.5443 4.06968C22.7737 1.41176 19.1048 -0.0466075 15.3061 0.000112262C12.4688 -0.000578078 9.68717 0.805838 7.27233 2.32919C4.85748 3.85254 2.90461 6.03277 1.63208 8.6261L6.5815 12.5567C7.18685 10.675 8.35449 9.03509 9.91978 7.86812C11.4851 6.70115 13.3691 6.06603 15.3061 6.05229" fill="#EB4335"/>
</g>
<defs>
<clipPath id="clip0">
<rect width="30" height="31.3043" fill="white"/>
</clipPath>
</defs>
</svg>
