<?xml version="1.0" encoding="utf-8"?>
<!-- Generator: Adobe Illustrator 25.4.1, SVG Export Plug-In . SVG Version: 6.00 Build 0)  -->
<svg version="1.1" id="Layer_1" xmlns="http://www.w3.org/2000/svg" xmlns:xlink="http://www.w3.org/1999/xlink" x="0px" y="0px"
	 viewBox="0 0 514 205" style="enable-background:new 0 0 514 205;" xml:space="preserve">
<style type="text/css">
	.st0{fill:#ffffff;}
</style>
<g id="Group_115" transform="translate(120.338 38.292)">
	<path id="Path_425" class="st0" d="M75.9,44v-5.2H52.8v35.4h23.1V69H59.3V58.8h15.1v-5.1H59.3V44H75.9z"/>
	<path id="Path_426" class="st0" d="M81.8,49.1v25.1h6.5V61.3c-0.1-1.9,0.4-3.8,1.6-5.4c1-1.3,2.6-2,4.2-1.9c1.5-0.1,3,0.5,3.9,1.7
		c0.9,1.5,1.4,3.2,1.3,5v13.6h6.5V61.3c-0.1-1.9,0.4-3.8,1.6-5.4c1-1.3,2.6-2,4.2-1.9c1.5-0.1,2.9,0.5,3.8,1.7
		c0.9,1.5,1.4,3.2,1.2,5v13.6h6.5V60c0-3.8-0.9-6.6-2.6-8.6c-1.8-2-4.3-2.9-7.5-2.9c-1.8,0-3.5,0.4-5,1.2c-1.5,0.8-2.7,1.9-3.7,3.3
		c-1.6-3-4.4-4.5-8.2-4.5c-1.6,0-3.2,0.3-4.6,1.1c-1.3,0.7-2.4,1.7-3.2,2.9l-0.6-3.4L81.8,49.1z"/>
	<path id="Path_427" class="st0" d="M135.5,70.8c0.9,1.3,2.1,2.3,3.4,3c1.5,0.7,3.2,1.1,5,1.1c2.2,0,4.4-0.6,6.3-1.7
		c1.9-1.1,3.4-2.7,4.4-4.7c1.1-2.1,1.7-4.4,1.6-6.8c0-2.4-0.5-4.7-1.6-6.8c-1-1.9-2.5-3.5-4.4-4.7c-1.9-1.2-4.1-1.8-6.3-1.7
		c-1.8-0.1-3.6,0.4-5.2,1.3c-1.2,0.8-2.3,1.8-3.2,2.9l-0.7-3.6h-5.8v36.2h6.5L135.5,70.8z M137.4,56.3c2.8-2.8,7.4-2.8,10.2,0
		c1.4,1.5,2.1,3.4,2,5.4c0.1,2-0.7,3.9-2,5.4c-2.9,2.8-7.4,2.8-10.2,0C134.8,63.9,134.8,59.4,137.4,56.3z"/>
	<path id="Path_428" class="st0" d="M185.1,68.5c2.3-4.3,2.3-9.4,0-13.7c-1.1-1.9-2.7-3.5-4.6-4.6c-4.1-2.2-9-2.2-13.1,0
		c-1.9,1.1-3.5,2.7-4.6,4.6c-1.2,2.1-1.8,4.5-1.7,6.9c0,2.4,0.5,4.8,1.7,6.9c1.1,1.9,2.7,3.5,4.6,4.6c4.1,2.2,9,2.2,13.1,0
		C182.4,72,184,70.4,185.1,68.5z M178.4,67.3c-1.1,1.2-2.7,1.9-4.4,1.9c-1.7,0-3.2-0.7-4.4-1.9c-1.3-1.6-2-3.6-1.8-5.6
		c-0.2-2,0.5-4.1,1.8-5.6c2.3-2.4,6.1-2.5,8.5-0.3c0.1,0.1,0.2,0.2,0.3,0.3c1.4,1.6,2,3.6,1.9,5.6C180.4,63.7,179.7,65.7,178.4,67.3
		z"/>
	<path id="Path_429" class="st0" d="M220.7,74.2l7.4-25.1h-6.4l-4.4,18.1l-5.1-18.1H205l-5.1,18.1l-4.4-18.1h-6.4l7.3,25.1h6.7
		l5.4-18.8l5.4,18.8H220.7z"/>
	<path id="Path_430" class="st0" d="M249.9,50.1c-2-1.1-4.2-1.7-6.5-1.6c-2.4-0.1-4.8,0.5-6.9,1.7c-1.9,1.1-3.5,2.8-4.6,4.7
		c-1.1,2.1-1.7,4.5-1.6,6.9c0,2.4,0.5,4.7,1.7,6.8c1.1,1.9,2.7,3.5,4.6,4.6c2.1,1.1,4.4,1.7,6.7,1.6c1.9,0,3.7-0.3,5.4-1.1
		c1.6-0.7,2.9-1.8,4-3.1c1.1-1.3,1.9-2.7,2.4-4.3h-6.6c-0.4,0.9-1.1,1.7-2,2.3c-1,0.6-2.1,0.9-3.3,0.9c-1.7,0-3.3-0.6-4.5-1.7
		c-1.3-1.2-2-2.9-2-4.6h19.1c0-0.4,0.1-0.9,0.1-1.3s0-0.8,0-1.2c0-2.2-0.5-4.3-1.6-6.2C253.3,52.7,251.8,51.2,249.9,50.1z
		 M236.9,59.2c0.2-1.6,1-3.1,2.3-4.1c1.2-0.9,2.7-1.4,4.2-1.3c1.5,0,3,0.5,4.1,1.5c1.1,1,1.8,2.4,1.8,3.9L236.9,59.2z"/>
	<path id="Path_431" class="st0" d="M267.7,53.8l-0.6-4.7h-5.8v25.1h6.5V62.8c-0.1-1.6,0.2-3.1,0.9-4.5c0.6-1,1.5-1.8,2.6-2.3
		c1.2-0.5,2.5-0.7,3.8-0.7h1.8v-6.8c-1.9,0-3.9,0.5-5.5,1.4C269.8,50.9,268.6,52.2,267.7,53.8z"/>
	<path id="Path_432" class="st0" d="M299.5,50.1c-2-1.1-4.2-1.7-6.5-1.6c-2.4-0.1-4.8,0.5-6.9,1.7c-1.9,1.1-3.5,2.8-4.6,4.7
		c-1.1,2.1-1.7,4.5-1.6,6.9c0,2.4,0.5,4.7,1.7,6.8c1.1,1.9,2.7,3.5,4.6,4.6c2.1,1.1,4.4,1.7,6.7,1.6c1.9,0,3.7-0.3,5.4-1.1
		c1.6-0.7,2.9-1.8,4-3.1c1.1-1.3,1.9-2.7,2.4-4.3h-6.6c-0.4,0.9-1.1,1.7-2,2.3c-1,0.6-2.1,0.9-3.3,0.9c-1.7,0-3.3-0.6-4.5-1.7
		c-1.3-1.2-2-2.9-2-4.6h19.1c0-0.4,0.1-0.9,0.1-1.3s0-0.8,0-1.2c0-2.2-0.5-4.3-1.6-6.2C302.9,52.7,301.4,51.2,299.5,50.1z
		 M286.5,59.2c0.2-1.6,1-3.1,2.3-4.1c1.2-0.9,2.7-1.4,4.2-1.3c1.5,0,3,0.5,4.1,1.5c1.1,1,1.8,2.4,1.8,3.9L286.5,59.2z"/>
	<path id="Path_433" class="st0" d="M330.8,52.6c-0.9-1.3-2.1-2.3-3.4-3c-1.5-0.7-3.2-1.1-5-1.1c-2.2,0-4.4,0.6-6.3,1.7
		c-1.9,1.1-3.4,2.7-4.4,4.7c-1.1,2.1-1.7,4.4-1.6,6.8c0,2.4,0.5,4.7,1.6,6.8c1,1.9,2.5,3.6,4.4,4.7c1.9,1.2,4.1,1.8,6.3,1.7
		c1.8,0.1,3.6-0.4,5.2-1.3c1.2-0.8,2.3-1.8,3.2-2.9l0.7,3.6h5.8V37.8h-6.5V52.6z M328.9,67c-2.8,2.8-7.4,2.8-10.2,0
		c-1.4-1.5-2.1-3.4-2-5.4c-0.1-2,0.7-3.9,2-5.4c2.9-2.8,7.4-2.8,10.2,0C331.6,59.4,331.6,63.9,328.9,67z"/>
	<path id="Path_434" class="st0" d="M85.8,118l-7.3-28.2h-7.1L63.9,118l-6.4-28.2h-6.9l9.4,35.4h7.6L74.8,99l7,26.3h7.7l9.6-35.4h-7
		L85.8,118z"/>
	<path id="Path_435" class="st0" d="M119.6,101.2c-4.1-2.2-9-2.2-13.1,0c-1.9,1.1-3.5,2.7-4.6,4.6c-1.2,2.1-1.8,4.5-1.7,6.9
		c-0.1,2.4,0.5,4.8,1.7,6.9c1.1,1.9,2.7,3.5,4.6,4.6c4.1,2.2,9,2.2,13.1,0c1.9-1.1,3.5-2.7,4.6-4.6c2.3-4.3,2.3-9.4,0-13.7
		C123.1,103.9,121.6,102.3,119.6,101.2z M117.5,118.3c-1.1,1.2-2.7,1.9-4.4,1.9c-1.7,0-3.2-0.7-4.4-1.9c-2.5-3.4-2.5-7.9,0-11.3
		c2.3-2.4,6.1-2.5,8.5-0.3c0.1,0.1,0.2,0.2,0.3,0.3C120,110.4,120,115,117.5,118.3L117.5,118.3z"/>
	<path id="Path_436" class="st0" d="M162.8,99.5c-1.8,0-3.5,0.4-5,1.2c-1.5,0.8-2.7,1.9-3.7,3.3c-1.6-3-4.4-4.5-8.2-4.5
		c-1.6,0-3.2,0.3-4.6,1.1c-1.3,0.7-2.4,1.7-3.2,2.9l-0.6-3.4h-5.7v25.1h6.5v-13c-0.1-1.9,0.4-3.8,1.6-5.4c1-1.3,2.6-2,4.2-1.9
		c1.5-0.1,3,0.5,3.9,1.7c0.9,1.5,1.4,3.2,1.3,5v13.6h6.5v-12.9c-0.1-1.9,0.4-3.8,1.6-5.4c1-1.3,2.6-2,4.2-1.9
		c1.5-0.1,2.9,0.5,3.8,1.7c0.9,1.5,1.3,3.2,1.2,5v13.6h6.5v-14.2c0-3.8-0.9-6.6-2.6-8.6C168.5,100.5,166,99.5,162.8,99.5z"/>
	<path id="Path_437" class="st0" d="M197.9,101.1c-2-1.1-4.2-1.7-6.5-1.6c-2.4-0.1-4.8,0.5-6.9,1.7c-1.9,1.1-3.5,2.8-4.6,4.7
		c-1.1,2.1-1.7,4.5-1.6,6.9c0,2.4,0.5,4.7,1.7,6.8c1.1,1.9,2.7,3.5,4.6,4.6c2.1,1.1,4.4,1.7,6.7,1.6c1.9,0,3.7-0.3,5.4-1.1
		c1.6-0.7,2.9-1.8,4-3.1c1.1-1.3,1.9-2.7,2.4-4.3h-6.6c-0.4,0.9-1.1,1.7-2,2.3c-1,0.6-2.1,0.9-3.3,0.9c-1.7,0-3.3-0.6-4.5-1.7
		c-1.3-1.2-2-2.9-2-4.6h19.1c0-0.4,0.1-0.9,0.1-1.3s0-0.8,0-1.2c0-2.2-0.5-4.3-1.6-6.2C201.2,103.7,199.7,102.2,197.9,101.1z
		 M184.8,110.2c0.2-1.6,1-3.1,2.3-4.1c1.2-0.9,2.7-1.4,4.2-1.3c1.5,0,3,0.5,4.1,1.5c1.1,1,1.8,2.4,1.8,3.9H184.8z"/>
	<path id="Path_438" class="st0" d="M224.1,99.5c-1.8,0-3.6,0.4-5.2,1.3c-1.4,0.8-2.6,2.1-3.4,3.5l-0.5-4.2h-5.7v25.1h6.5v-13
		c-0.1-1.9,0.5-3.9,1.7-5.4c1.1-1.3,2.8-2,4.5-1.9c1.6-0.1,3.1,0.5,4.1,1.7c1,1.5,1.4,3.2,1.3,5v13.6h6.5v-14.2
		c0-3.8-0.9-6.6-2.6-8.6C229.5,100.4,226.8,99.4,224.1,99.5z"/>
	<path id="Path_439" class="st0" d="M54.5,25.9c1.6,0.9,3.5,1.4,5.3,1.4c1.5,0.1,3-0.3,4.3-0.9c0.8-0.5,1.5-1,2.1-1.8l0.2,2.3H70
		v-12h-9.6v3.2H66c-0.1,1.5-0.7,2.8-1.7,4c-1.1,1.1-2.7,1.7-4.3,1.6c-1.7,0.1-3.4-0.6-4.6-1.9c-1.2-1.6-1.9-3.5-1.7-5.5
		c-0.1-2,0.5-4,1.8-5.5c1.2-1.3,3-2.1,4.8-2c1.2-0.1,2.3,0.3,3.3,0.9c0.8,0.6,1.4,1.4,1.7,2.4l0.1,0.3h4.4l-0.1-0.5
		c-0.4-2-1.6-3.8-3.2-5c-1.8-1.2-4-1.9-6.1-1.8c-2,0-3.9,0.4-5.6,1.4c-1.6,0.9-2.9,2.3-3.7,4c-0.9,1.8-1.3,3.8-1.3,5.8
		c0,2,0.4,4,1.3,5.8C51.7,23.6,52.9,24.9,54.5,25.9z"/>
	<path id="Path_440" class="st0" d="M76.2,26.3c1.2,0.7,2.6,1,4,1c1.4,0,2.8-0.3,4-1c1.2-0.7,2.2-1.7,2.8-2.8c1.4-2.7,1.4-5.8,0-8.5
		c-0.7-1.2-1.6-2.2-2.8-2.8c-2.5-1.4-5.5-1.4-7.9,0c-1.2,0.7-2.2,1.7-2.8,2.8c-0.7,1.3-1.1,2.8-1,4.2c0,1.5,0.3,2.9,1,4.2
		C74,24.6,75,25.6,76.2,26.3z M76.9,16.6c0.3-0.6,0.8-1.1,1.4-1.5c1.7-1,3.9-0.5,5,1.2c0.1,0.1,0.1,0.2,0.2,0.3
		c0.4,0.8,0.6,1.7,0.5,2.6c0,0.9-0.2,1.8-0.5,2.6c-0.9,1.8-3.1,2.5-4.9,1.7c-0.7-0.4-1.3-0.9-1.7-1.7C76.2,20.1,76.2,18.2,76.9,16.6
		L76.9,16.6z"/>
	<path id="Path_441" class="st0" d="M93.9,26.3c1.2,0.7,2.6,1,4,1c1.4,0,2.8-0.3,4-1c1.2-0.7,2.2-1.7,2.8-2.8c1.4-2.7,1.4-5.8,0-8.5
		c-0.7-1.2-1.6-2.2-2.8-2.8c-2.5-1.4-5.5-1.4-7.9,0c-1.2,0.7-2.2,1.7-2.8,2.8c-0.7,1.3-1.1,2.8-1,4.2c0,1.5,0.3,2.9,1,4.2
		C91.7,24.6,92.7,25.6,93.9,26.3z M94.6,16.6c0.3-0.6,0.8-1.1,1.4-1.5c1.7-1,3.9-0.5,5,1.2c0.1,0.1,0.1,0.2,0.2,0.3
		c0.4,0.8,0.6,1.7,0.5,2.6c0,0.9-0.2,1.8-0.5,2.6c-0.9,1.8-3.1,2.5-4.9,1.7c-0.7-0.4-1.3-0.9-1.7-1.7C93.9,20.1,93.9,18.2,94.6,16.6
		L94.6,16.6z"/>
	<path id="Path_442" class="st0" d="M106.6,28.7c-0.1,1.6,0.7,3.1,2.1,3.9c1.6,0.9,3.4,1.3,5.2,1.2c1.3,0,2.7-0.2,3.9-0.8
		c1-0.4,1.8-1.2,2.3-2c0.5-0.8,0.7-1.7,0.8-2.7c0-1.3-0.5-2.5-1.4-3.3c-1.3-0.9-2.9-1.5-4.5-1.5c-1-0.1-1.7-0.2-2.3-0.2
		c-0.4-0.1-0.8-0.1-1.3-0.3c-0.1,0-0.2,0-0.2-0.1l0.7-0.7c0.7,0.2,1.3,0.2,2,0.2c1.2,0,2.3-0.2,3.4-0.8c0.9-0.5,1.6-1.2,2.2-2
		c0.5-0.9,0.8-1.9,0.7-2.9c0-0.8-0.2-1.6-0.5-2.3l2.4-0.1v-2.9h-5.8c-0.8-0.2-1.6-0.4-2.4-0.4c-1.2,0-2.3,0.2-3.4,0.8
		c-0.9,0.5-1.7,1.2-2.2,2.1c-0.5,0.9-0.8,1.8-0.7,2.8c0,1.5,0.5,2.9,1.5,3.9l-2.4,2.4v1.1l0.1,0.1c0.3,0.2,0.6,0.5,0.9,0.7
		c0.2,0.1,0.4,0.2,0.6,0.3c-0.5,0.4-0.9,0.9-1.2,1.4C106.8,27.3,106.6,28,106.6,28.7z M111.9,15c0.6-0.4,1.3-0.7,2-0.6
		c0.7,0,1.4,0.2,1.9,0.6c0.9,1,0.9,2.5,0,3.5c-0.5,0.4-1.2,0.7-1.9,0.6c-0.7,0-1.4-0.2-2-0.6C111,17.5,111,16,111.9,15L111.9,15z
		 M110.7,27.3c0.3-0.4,0.7-0.8,1.1-1c0.7,0.1,1.5,0.2,2.4,0.2c0.8,0,1.6,0.2,2.3,0.7c0.3,0.3,0.5,0.7,0.5,1.2c0,0.6-0.3,1.2-0.8,1.5
		c-0.7,0.4-1.6,0.7-2.4,0.6c-0.9,0-1.8-0.2-2.6-0.6c-0.6-0.3-0.9-0.9-0.9-1.6C110.4,28,110.5,27.6,110.7,27.3z"/>
	<rect id="Rectangle_23" x="124.1" y="4.8" class="st0" width="3.9" height="22.1"/>
	<path id="Path_443" class="st0" d="M134.4,26.3c1.2,0.7,2.6,1,4,1c1.7,0.1,3.3-0.5,4.6-1.5c1.2-0.9,2.1-2.2,2.5-3.7l0.1-0.5h-3.9
		l-0.1,0.2c-0.2,0.6-0.7,1.1-1.2,1.5c-0.6,0.4-1.3,0.6-2,0.5c-1,0-1.9-0.3-2.6-1c-0.7-0.7-1.1-1.6-1.2-2.5h11.3l0-0.4
		c0-0.3,0-0.5,0-0.8c0-0.2,0-0.4,0-0.7c0-1.3-0.3-2.6-0.9-3.7c-0.6-1.1-1.5-2.1-2.6-2.7c-1.2-0.7-2.6-1-4-1c-1.4,0-2.8,0.3-4.1,1
		c-1.2,0.7-2.1,1.7-2.8,2.9c-0.7,1.3-1,2.8-1,4.2c0,1.5,0.3,2.9,1,4.2C132.3,24.6,133.2,25.6,134.4,26.3z M135.9,15.3
		c0.7-0.6,1.6-0.9,2.5-0.8c0.9,0,1.8,0.3,2.5,0.9c0.6,0.5,0.9,1.2,1,2h-7.3C134.8,16.6,135.2,15.8,135.9,15.3L135.9,15.3z"/>
	<path id="Path_444" class="st0" d="M170.3,23.5h-8.7c0.7-0.6,1.4-1.2,2.1-1.8c1-0.9,2-1.9,2.9-3c0.9-1,1.6-2.2,2.2-3.4
		c0.6-1.1,0.9-2.4,0.9-3.6c0.1-1.8-0.6-3.6-1.9-4.9c-1.4-1.2-3.1-1.8-5-1.7c-1.3,0-2.5,0.3-3.6,0.8c-1.1,0.5-2,1.4-2.6,2.4
		c-0.7,1.2-1,2.5-1,3.9l0,0.4h3.9l0-0.4c0-0.9,0.2-1.8,0.8-2.6c0.6-0.7,1.5-1.1,2.5-1c0.6,0,1.2,0.1,1.7,0.4
		c0.4,0.3,0.7,0.7,0.9,1.2c0.2,0.5,0.3,1.1,0.3,1.6c0,1-0.3,1.9-0.8,2.7c-0.6,1.1-1.3,2.1-2.2,3c-1,1.1-2.1,2.2-3.2,3.2
		c-1.2,1.1-2.5,2.1-3.8,3.2l-0.2,0.1v2.8h14.8L170.3,23.5z"/>
	<path id="Path_445" class="st0" d="M176.3,25.9c3.1,1.9,7,1.9,10.1,0c1.4-1,2.5-2.3,3.2-3.9c1.5-3.7,1.5-7.8,0-11.5
		c-0.7-1.6-1.8-2.9-3.2-3.9c-3.1-1.9-7-1.9-10.1,0c-1.4,1-2.6,2.3-3.2,3.9c-1.5,3.7-1.5,7.8,0,11.5
		C173.7,23.5,174.8,24.9,176.3,25.9z M176.6,12.1c0.4-1,1-1.9,1.9-2.5c1.7-1.2,3.9-1.2,5.5,0c0.9,0.7,1.5,1.5,1.9,2.5
		c0.9,2.6,0.9,5.5,0,8.1c-0.4,1-1.1,1.9-1.9,2.5c-1.7,1.2-3.9,1.2-5.5,0c-0.9-0.7-1.5-1.5-1.9-2.5C175.7,17.6,175.7,14.7,176.6,12.1
		L176.6,12.1z"/>
	<path id="Path_446" class="st0" d="M207.5,23.5h-8.7c0.7-0.6,1.4-1.2,2.1-1.8c1-0.9,2-1.9,2.9-3c0.9-1,1.6-2.2,2.2-3.4
		c0.6-1.1,0.9-2.4,0.9-3.6c0.1-1.8-0.6-3.6-1.9-4.9c-1.4-1.2-3.1-1.8-5-1.7c-1.3,0-2.5,0.3-3.6,0.8c-1.1,0.5-2,1.4-2.6,2.4
		c-0.7,1.2-1,2.5-1,3.9l0,0.4h3.9l0-0.4c0-0.9,0.2-1.8,0.8-2.6c0.6-0.7,1.5-1.1,2.5-1c0.6,0,1.2,0.1,1.7,0.4
		c0.4,0.3,0.7,0.7,0.9,1.2c0.2,0.5,0.3,1.1,0.3,1.6c0,1-0.3,1.9-0.8,2.7c-0.6,1.1-1.3,2.1-2.2,3c-1,1.1-2.1,2.2-3.2,3.2
		c-1.2,1.1-2.5,2.1-3.8,3.2l-0.2,0.1v2.8h14.8L207.5,23.5z"/>
	<path id="Path_447" class="st0" d="M212.2,26.9h4.1V5.4h-2.4l-5,2.1v3.1l3.3-0.8L212.2,26.9z"/>
	<path id="Path_448" class="st0" d="M232.8,17.7c-1.6-0.1-3.3,0.3-4.7,1.2c-1.1,0.8-1.8,2.1-1.7,3.5c0,0.8,0.2,1.6,0.6,2.2
		c0.4,0.7,1,1.3,1.8,1.7c1,0.4,2,0.7,3,0.6c1.1,0.1,2.3-0.2,3.2-0.9c0.8-0.5,1.4-1.3,1.8-2.1l0.1,2.6h2.2v-9c0.3-3.1-2-5.7-5-6
		c-0.4,0-0.8,0-1.1,0c-1,0-2,0.2-3,0.6c-0.9,0.4-1.7,0.9-2.3,1.7c-0.6,0.8-1,1.7-1.1,2.7h2.5c0.1-0.9,0.6-1.6,1.3-2.1
		c0.7-0.5,1.6-0.7,2.5-0.7c1,0,2,0.3,2.7,1c0.7,0.8,1.1,1.8,1,2.9v0.2L232.8,17.7z M236.7,19.6c0,0.9-0.2,1.7-0.5,2.5
		c-0.3,0.8-0.9,1.4-1.6,1.9c-0.7,0.5-1.6,0.8-2.4,0.7c-0.8,0.1-1.7-0.2-2.4-0.7c-0.6-0.4-0.9-1.1-0.8-1.8c0-0.7,0.3-1.4,0.9-1.9
		c0.9-0.6,2-0.9,3.1-0.8L236.7,19.6L236.7,19.6z"/>
	<path id="Path_449" class="st0" d="M254.6,12.5c-1.2-0.7-2.5-1-3.8-1c-1.2,0-2.3,0.2-3.4,0.9c-0.8,0.5-1.5,1.1-2,1.9l-0.2-2.4h-2.2
		V33h2.5v-8.9c0.5,0.9,1.2,1.6,2.1,2.1c1,0.5,2.1,0.8,3.2,0.7c1.3,0,2.7-0.3,3.8-1c1.1-0.7,2-1.6,2.5-2.7c0.6-1.2,0.9-2.6,0.9-3.9
		c0-1.4-0.3-2.7-0.9-4C256.6,14.1,255.7,13.2,254.6,12.5z M254.9,22.1c-1.2,2.4-4.2,3.4-6.6,2.2c-0.9-0.5-1.7-1.2-2.2-2.2
		c-0.9-1.8-0.9-4,0-5.8c1.2-2.4,4.2-3.4,6.6-2.1c0.9,0.5,1.7,1.2,2.1,2.1C255.7,18.1,255.7,20.2,254.9,22.1z"/>
	<path id="Path_450" class="st0" d="M264,24.1c0.5,0.9,1.2,1.6,2.1,2.1c1,0.5,2.1,0.8,3.2,0.7c1.3,0,2.7-0.3,3.8-1
		c1.1-0.7,2-1.6,2.5-2.7c0.6-1.2,0.9-2.6,0.9-3.9c0-1.4-0.3-2.7-0.9-4c-0.6-1.1-1.4-2.1-2.5-2.7c-1.2-0.7-2.5-1-3.8-1
		c-1.2,0-2.3,0.2-3.4,0.9c-0.8,0.5-1.5,1.1-2,1.9l-0.2-2.4h-2.2V33h2.5L264,24.1z M264.7,16.3c1.2-2.4,4.2-3.4,6.6-2.2
		c0.9,0.5,1.7,1.2,2.2,2.2c0.9,1.8,0.9,4,0,5.8c-1.2,2.4-4.2,3.4-6.6,2.2c-0.9-0.5-1.7-1.2-2.2-2.2
		C263.8,20.2,263.8,18.1,264.7,16.3z"/>
	<path id="Path_451" class="st0" d="M285.7,24.8c-1,0.1-1.9-0.2-2.7-0.8c-0.6-0.5-1.1-1.2-1.2-2h-2.5c0.1,1.4,0.9,2.7,2,3.6
		c1.3,0.9,2.8,1.4,4.4,1.3c1.5,0.1,2.9-0.4,4.1-1.3c1-0.8,1.5-2,1.5-3.3c0.1-0.9-0.2-1.8-0.8-2.4c-0.6-0.6-1.2-1-2-1.3
		c-0.8-0.3-1.7-0.5-2.6-0.7c-0.9-0.2-1.7-0.5-2.5-0.9c-0.6-0.2-0.9-0.8-0.9-1.4c0-0.6,0.3-1.1,0.7-1.5c0.6-0.4,1.3-0.6,2.1-0.6
		c0.8,0,1.5,0.2,2.2,0.6c0.5,0.4,0.9,1.1,1,1.8h2.5c-0.1-1.3-0.7-2.5-1.7-3.3c-1.1-0.8-2.5-1.2-3.8-1.2c-1.4-0.1-2.8,0.4-3.9,1.2
		c-0.9,0.8-1.5,1.9-1.4,3.1c0,0.8,0.3,1.6,0.8,2.1c0.6,0.6,1.2,1,2,1.3c0.8,0.3,1.6,0.5,2.4,0.7c0.9,0.2,1.8,0.4,2.7,0.8
		c0.7,0.3,1,1,1,1.8c0,0.6-0.3,1.2-0.7,1.6C287.3,24.6,286.5,24.8,285.7,24.8z"/>
	<path id="Path_452" class="st0" d="M305.9,9.4c-0.1-0.6,0.1-1.1,0.5-1.6c0.5-0.3,1-0.5,1.6-0.5h1.1V5.2h-1.5
		c-1.1-0.1-2.2,0.3-3.1,1c-0.8,0.8-1.2,2-1.1,3.1v2.5h-2.2V14h2.2v12.5h2.5V14h3.6v-2.1h-3.6L305.9,9.4z"/>
	<path id="Path_453" class="st0" d="M314.8,25.9c1.1,0.6,2.4,1,3.7,0.9c1.3,0,2.6-0.3,3.7-0.9c1.1-0.6,2-1.6,2.6-2.7
		c0.7-1.2,1-2.6,1-4.1c0-1.4-0.3-2.8-1-4.1c-0.6-1.1-1.5-2-2.6-2.7c-1.1-0.6-2.4-1-3.7-0.9c-1.3,0-2.6,0.3-3.7,0.9
		c-1.1,0.6-2,1.6-2.6,2.7c-0.7,1.2-1,2.6-1,4.1c0,1.4,0.3,2.8,1,4.1C312.8,24.4,313.7,25.3,314.8,25.9z M314.5,16.1
		c0.4-0.8,1-1.4,1.8-1.9c0.7-0.4,1.5-0.6,2.4-0.6c0.8,0,1.6,0.2,2.3,0.6c0.8,0.4,1.4,1.1,1.8,1.9c0.5,1,0.7,2,0.7,3.1
		c0,1.1-0.2,2.1-0.7,3.1c-0.4,0.8-1,1.4-1.8,1.9c-0.7,0.4-1.5,0.6-2.4,0.6c-0.8,0-1.6-0.2-2.3-0.6c-0.7-0.4-1.4-1.1-1.8-1.9
		C313.6,20.3,313.6,18.1,314.5,16.1L314.5,16.1z"/>
	<path id="Path_454" class="st0" d="M333.9,12.4c-0.9,0.5-1.6,1.3-2.1,2.3l-0.2-2.8h-2.2v14.7h2.5v-7.4c-0.1-1,0.2-2.1,0.6-3
		c0.4-0.7,1-1.2,1.7-1.6c0.8-0.3,1.6-0.5,2.4-0.5h0.7v-2.6C336.1,11.5,334.9,11.8,333.9,12.4z"/>
	<path id="Path_455" class="st0" d="M-20.3,57.1c2.5,0,4.7-1.5,5.8-3.7H-26C-25,55.6-22.8,57.1-20.3,57.1z"/>
	<path id="Path_456" class="st0" d="M21.9,54.1c-5.1-6.9-14.8-8.3-21.6-3.2c-1.1,0.8-2.1,1.8-3,2.9c-0.8,0.9-1.1,2.2-0.8,3.4
		l0.6,2.6c0.2,0.7,0.5,1.3,0.9,1.8l-0.7,2.8c-0.3,1.9,0.6,3.8,2.3,4.7c3.1,1.6,8.9,3.8,14.6,1.6c0.1,1.3,0.4,3.6,0.7,6.9
		c-2-1-4.2-1.6-6.5-1.7l-9.8-0.5c-0.9,0-1.7,0.2-2.5,0.6l0-5.1c0-0.4-0.3-0.7-0.6-0.8l-9.3-2l-0.7-4c3.3-2.7,5.2-6.7,5.2-10.9V31.9
		c4.2-2.2,6.8-6.5,7-11.3c0-7.5-7-13.5-15.6-13.5c-2.8,0-5.6,0.7-8,2c1-2.1,1.6-4.4,1.7-6.7c0-0.3-0.2-0.6-0.4-0.8
		c-4.6-2.3-9.3-2.3-13.1-0.1c-2.6,1.6-4.6,4.2-5.4,7.2c-1.3-0.2-2.7,0.2-3.8,0.9c-0.8,0.6-1.4,1.4-1.7,2.4c-3.1-0.8-6.4-0.3-9.2,1.3
		c-3.7,2.2-6,6.4-6.2,11.5c0,0.3,0.2,0.6,0.5,0.8c1.8,0.9,3.7,1.5,5.7,1.7c-2.9,7.5-1.1,16.1,4.6,21.8l9.2,11.3l0,5.8l-4.4-0.8
		c-0.2,0-0.5,0-0.7,0.2c-0.2,0.2-0.3,0.4-0.3,0.6l0.5,11.3c-1.8,2.4-14.8,21.2-4,49.7c0.1,0.3,0.4,0.5,0.8,0.5c0.1,0,0.2,0,0.3-0.1
		c0.4-0.2,0.6-0.6,0.5-1c0,0,0,0,0,0c-10.3-27.2,1.6-45.2,3.7-48l8,1.8c-3.2,1.7-5.8,4.3-7.4,7.6c-0.2,0.4,0,0.9,0.4,1c0,0,0,0,0,0
		c0.1,0,0.2,0.1,0.3,0.1c0.3,0,0.6-0.2,0.7-0.5c1.9-3.8,5.4-6.7,9.5-8c6.3-1.9,14.1-0.3,23.3,4.7c-3,3.1-13.5,15.9-8.9,33.7
		c-6.6-1.9-13-4.2-19.3-6.9c-0.4-0.2-0.9,0-1.1,0.4c-0.2,0.4,0,0.8,0.4,1c0.3,0.1,31.2,13.9,65.4,14.8c0.2,0,0.3,0,0.5,0
		c4.4,0,8.7-1.7,11.9-4.8c3.3-3.1,5.1-7.4,5.2-11.9c0.2-13.2-2.4-23.1-12.1-46C27.2,61.6,24.8,57.6,21.9,54.1z M-5,78.6
		c0.5-0.1,1-0.4,1.3-0.7c0.6-0.6,1.5-1,2.4-0.9l9.8,0.5c2.4,0.1,4.7,0.9,6.8,2.1c0.3,3.5,0.8,7.9,1.3,13.1c-0.9-0.3-2-0.6-3.1-0.9
		c0.9-0.9,1.2-2.1,0.8-3.3l-0.8-2.5l0.7-1.3c0.2-0.4,0-0.9-0.4-1.1c-0.4-0.2-0.9,0-1.1,0.3c0,0,0,0,0,0l-0.8,1.6
		c-0.1,0.2-0.1,0.4,0,0.6l0.9,2.8c0.3,0.8-0.1,1.7-0.9,1.9c-0.5,0.2-1.2,0.1-1.6-0.3c-1.2-1.4-1.6-3.3-1.1-5.1l1.7-5
		c0.1-0.4-0.1-0.9-0.5-1c-0.4-0.1-0.9,0.1-1,0.5l0,0l-1.7,5.1C7.1,86.6,7.2,88.4,8,90c-0.2-0.2-0.5-0.3-0.8-0.4
		c-0.9-0.2-1.8-0.1-2.5,0.5l-0.1-0.2c-0.8-1.7-1.1-3.5-0.9-5.4l0.5-4.4c0.1-0.4-0.2-0.9-0.6-0.9c-0.4-0.1-0.9,0.2-0.9,0.6
		c0,0,0,0.1,0,0.1l-0.5,4.4c-0.2,2.1,0.1,4.2,1,6.2l0.3,0.6l0.1,0.6c-0.1-0.1-0.3-0.2-0.4-0.2c-0.9-0.3-1.8-0.1-2.6,0.4l-1-2.1
		c-0.6-1.2-0.9-2.6-0.9-3.9v-5.9c0-0.4-0.4-0.8-0.8-0.8c-0.4,0-0.8,0.4-0.8,0.8V86c0,1.6,0.4,3.2,1.1,4.6l1.1,2.1
		c-0.1-0.1-0.3-0.1-0.4-0.2c-0.9-0.3-1.9,0-2.5,0.6L-6,89.8c-0.7-1.1-1.1-2.5-1.1-3.8v-4.7C-7.1,80-6.3,78.9-5,78.6
		C-5,78.6-5,78.5-5,78.6z M8.5,94.2c0,0-0.1,0.1-0.1,0.1c-0.5,0.4-1.3,0.3-1.7-0.2c-0.1-0.1-0.1-0.2-0.2-0.3l-1.1-2.2
		c0.3-0.3,0.8-0.5,1.3-0.4C7.6,91.4,8.3,93.2,8.5,94.2L8.5,94.2z M4.1,95.8c-0.1,0.3-0.3,0.6-0.6,0.8c-0.1,0.1-0.2,0.1-0.4,0.1
		c-0.1,0-0.2-0.1-0.3-0.2l-1-2l0,0l-0.5-1c0.3-0.3,0.8-0.5,1.3-0.4C3.4,93.4,3.9,95,4.1,95.8L4.1,95.8z M0.4,97.5
		c-0.1,0.1-0.2,0.3-0.3,0.4c-0.3,0.2-0.7,0.2-0.9,0c0,0,0-0.1-0.1-0.1l-2-3.1c0.3-0.4,0.7-0.6,1.2-0.5C-0.4,94.8,0.4,96.1,0.4,97.5
		L0.4,97.5z M-5.4,71.3l0,5.6c0,0,0,0,0,0c0,0,0,0-0.1,0c-2,0.5-3.3,2.3-3.3,4.3V86c-0.8-0.5-1.5-0.9-2.2-1.3l-2.5-15.1L-5.4,71.3z
		 M-30.9,21.9c1.1,3.2,3.7,5.6,7,6.4c0.6,0.1,1.2,0.2,1.8,0.2c1.7,0,3.3-0.5,4.7-1.4c1.9-1.1,3.2-3,3.7-5.1c0.4-1.7-0.1-3.5-1.2-4.9
		c-1.1-1.2-2.6-1.7-4.2-1.5c-2.3,0.3-4,2.1-4.4,4.3c-0.1,1.2,0.2,2.3,1,3.2c0.6,0.7,1.4,1.1,2.4,1.2c0.4,0,0.8-0.3,0.8-0.7
		c0,0,0,0,0,0c0-0.4-0.3-0.8-0.8-0.9c-0.5,0-0.9-0.3-1.2-0.6c-0.4-0.6-0.7-1.3-0.6-2c0.3-1.5,1.5-2.7,3-2.9c1-0.2,2.1,0.2,2.8,1
		c0.8,0.9,1.1,2.2,0.9,3.4c-0.4,1.7-1.5,3.2-3,4.1c-1.6,1-3.5,1.3-5.3,0.9c-2.7-0.7-4.9-2.8-5.9-5.5c-1.1-2.5-0.9-5.4,0.5-7.8
		c2.9-3.1,6.9-4.8,11.1-4.8c7.7,0,14,5.3,14,11.9s-6.3,11.9-14,11.9c-2.2,0-4.3-0.4-6.3-1.3c-1.3-0.6-2.5-1.3-3.6-2.2
		c-0.9-0.7-1.6-1.6-2.2-2.6c-0.1-0.2-0.3-0.3-0.5-0.4c-0.2,0-0.4-0.1-0.6-0.1c-1.9-0.4-5.3-1.1-7.5,0.7c-1.2,1.1-1.8,2.8-1.7,4.5
		c0,1.1,0,2.1,0.1,3.1c0.2,2.6,0.1,5.2-0.3,7.7l-0.3-0.8c-0.6-1.6-1.9-2.9-3.6-3.4l-0.1,0c1.4-8.7,5.9-16.5,12.8-22
		C-31.9,17.8-31.7,20-30.9,21.9z M-53.1,46.9c-4.7-5.4-5.9-13-3.1-19.6c1.7,0,3.3-0.4,4.8-1.2C-53.9,32.7-54.5,39.9-53.1,46.9z
		 M-50.1,25.5c-0.4,0.2-0.9,0.1-1.1-0.3c-0.2-0.4-0.1-0.9,0.3-1.1c0,0,0,0,0,0c2.5-1.5,4.2-4,4.8-6.8c0.1-0.4,0.6-0.7,1-0.6
		c0,0,0.1,0,0.1,0c1.5,0.5,3.1-0.1,4.1-1.3c0.3-0.4,0.6-0.9,0.7-1.4c0.1-0.4,0.6-0.7,1-0.6c2.2,0.6,4.4,0.5,6.6-0.2
		c0.4-0.2,0.9,0.1,1,0.5c0,0,0,0,0,0c0.2,0.4-0.1,0.9-0.5,1c-2.2,0.8-4.6,0.9-6.8,0.4c-0.2,0.4-0.4,0.8-0.7,1.2
		c-1.2,1.6-3.2,2.4-5.2,2.1C-45.6,21.4-47.5,23.9-50.1,25.5z M-36.8,79.1c-0.2,0.1-0.4,0.1-0.5,0.2l-10-2.3l-0.4-9.9l27.3,5l0.1,8.2
		C-26.5,78-32,77.6-36.8,79.1L-36.8,79.1z M-18.7,80.9l-0.2-9.5c0-0.4-0.3-0.7-0.7-0.8l-23-4.2l0-6.2c0,0,0-0.1,0-0.1v-0.2
		c0-0.1,0-0.1,0-0.2l-2.1-10.1c-0.4-3.4-0.4-6.8,0-10.2c1.1,0.4,2,1.2,2.4,2.3l0.4,1.3c0.4,1.1,1,1.3,1.4,1.3h0c0.4,0,1-0.2,1.4-1.4
		c0.7-2.2,0.6-5.2,0.5-8.7c0-1-0.1-2-0.1-3c-0.1-1.2,0.3-2.4,1.1-3.2c1.5-1.3,4.5-0.7,6.1-0.4c0.1,0,0.2,0,0.3,0.1
		c0.7,1,1.5,1.8,2.3,2.6c1.2,1,2.5,1.9,4,2.5c4.5,1.9,9.5,1.9,14,0V53c0,4.5-2.3,8.6-6.2,10.7c-6,3.2-14,1.5-18.7-1.9
		c-0.4-0.2-0.9-0.1-1.1,0.3c-0.2,0.3-0.1,0.8,0.2,1.1c3.7,2.5,8,3.9,12.5,3.9c2.8,0,5.5-0.6,8-1.9c0.1-0.1,0.3-0.2,0.4-0.2l3.1,18.8
		C-14.7,82.6-16.7,81.7-18.7,80.9z M-20.1,119.6c-5.2-18.2,6.2-31,8.5-33.4c1,0.6,2,1.2,3.1,1.9c0.2,0.9,0.6,1.8,1.1,2.6l4,6.2
		c-4.6,7.8-6.1,17.1-4.2,25.9C-12.1,121.8-16.3,120.7-20.1,119.6z M39.4,111.7c-0.1,4.1-1.8,7.9-4.7,10.7c-3,2.9-7,4.4-11.2,4.3
		c-9.9-0.3-19.7-1.5-29.4-3.7c-1.8-8.4-0.6-17.2,3.5-24.8l0.2,0.3c0.4,0.6,1,1,1.7,1c0.1,0,0.2,0,0.2,0c0.6,0,1.2-0.2,1.6-0.7
		C1.6,98.8,1.8,98.4,2,98c0.7,0.5,1.6,0.5,2.3,0c0.7-0.5,1.2-1.1,1.3-1.9c0,0,0-0.1,0-0.1c0-0.2,0.1-0.4,0.1-0.5
		c0.3,0.3,0.7,0.5,1.1,0.6c0.8,0.2,1.7,0.1,2.4-0.5c0.9-0.7,1.5-1.8,1.5-3c1.5,0.4,4.3,1.2,5.8,1.7c0.5,4.7,1,10.1,1.6,16.1
		c0,0.4,0.4,0.7,0.8,0.7c0,0,0.1,0,0.1,0c0.4,0,0.8-0.4,0.7-0.9c0,0,0,0,0,0c-0.6-6.2-1.2-11.7-1.6-16.6v0
		c-1.6-15.8-2.4-24.3-2.5-24.4c0-0.3-0.2-0.5-0.4-0.6c-0.2-0.1-0.5-0.1-0.8,0c-5.4,2.7-11.2,0.5-14.2-1.1c-1.1-0.5-1.7-1.7-1.5-2.9
		l0.5-2.1c0.5,0.2,1,0.4,1.6,0.4l5.2,0.4c1.4,0.1,2.6-0.9,2.7-2.3c0-0.2,0-0.4,0-0.6c-0.3-2-2-3.6-4-3.8l-3.7-0.5
		c-0.4-0.1-0.9,0.2-0.9,0.7c-0.1,0.4,0.2,0.9,0.7,0.9c0,0,0,0,0,0l3.7,0.5c0,0,0.1,0,0.2,0c-0.1,0-0.3,0.1-0.4,0.1
		c-1.5,0.4-2.7,1.5-3.2,2.9l0,0C0,61.4-1,60.5-1.2,59.4l-0.6-2.6c-0.2-0.7,0-1.4,0.5-2c4.7-6,13.3-7.2,19.4-2.5
		c1,0.8,1.9,1.7,2.7,2.8c2.8,3.4,5,7.2,6.8,11.3C37.1,89.1,39.6,98.8,39.4,111.7L39.4,111.7z M2.9,61.6c0.4-0.7,1-1.2,1.8-1.5
		c0.8-0.3,1.6-0.3,2.3,0c0,0,0,0,0,0c0.1,0.2,0.2,0.5,0.2,0.7c0,0.3,0,0.5-0.2,0.7c-0.2,0.2-0.4,0.3-0.7,0.3L2.9,61.6z"/>
</g>
</svg>
