<svg width="18" height="19" viewBox="0 0 18 19" fill="none" xmlns="http://www.w3.org/2000/svg">
<path d="M16.0714 8.3125H15.1071V5.64062C15.1071 2.53086 12.367 0 9 0C5.63304 0 2.89286 2.53086 2.89286 5.64062V8.3125H1.92857C0.863839 8.3125 0 9.11035 0 10.0938V17.2188C0 18.2021 0.863839 19 1.92857 19H16.0714C17.1362 19 18 18.2021 18 17.2188V10.0938C18 9.11035 17.1362 8.3125 16.0714 8.3125ZM11.8929 8.3125H6.10714V5.64062C6.10714 4.16738 7.40491 2.96875 9 2.96875C10.5951 2.96875 11.8929 4.16738 11.8929 5.64062V8.3125Z" fill="#008196"/>
</svg>
