<svg width="512" height="512" viewBox="0 0 512 512" fill="none" xmlns="http://www.w3.org/2000/svg">
<rect width="512" height="512" fill="url(#paint0_linear)" />
<path
    fill-rule="evenodd"
    clip-rule="evenodd"
    d="M325.084 250.268C319.396 265.258 310.532 278.147 299.772 289.724C282.992 307.795 264.323 323.365 241.64 333.256C226.689 339.771 211.167 342.98 195.142 338.084C175.71 332.141 164.365 317.784 158.848 298.696C150.577 270.072 155.642 242.886 169.897 217.449C186.715 187.423 212.352 170.309 246.143 166.136C249.29 165.744 252.504 166.076 255.688 166.076C271.78 165.85 286.99 169.398 300.883 177.925C326.728 193.819 335.962 221.607 325.084 250.268ZM420.494 159.959C409.979 140.254 394.19 125.768 375.796 113.965C339.539 90.7416 299.661 80.6101 255.592 80C252.489 80.1657 247.839 80.354 243.203 80.693C193.602 84.2861 153.85 106.688 124.843 147.38C91.6082 193.984 77.3455 246.788 80.4039 304.202C81.7887 330.017 88.1573 354.716 101.679 376.885C124.177 413.757 156.479 433.365 199.763 431.926C223.942 431.143 245.839 422.284 266.567 410.149C287.657 397.765 306.607 382.421 325.017 366.324C346.108 347.899 367.265 329.557 385.896 308.481C402.721 289.423 416.947 268.663 425.174 244.227C434.831 215.565 435.075 187.258 420.494 159.959Z"
    fill="white"
  />
<defs>
<linearGradient
      id="paint0_linear"
      x1="512"
      y1="0"
      x2="6.10352e-05"
      y2="512"
      gradientUnits="userSpaceOnUse"
    >
<stop offset="0.00520833" stop-color="#71CDCC" />
<stop offset="0.526042" stop-color="#5FC6C4" />
</linearGradient>
</defs>
</svg>
